<svg width="37" height="37" viewBox="0 0 37 37" fill="none" xmlns="http://www.w3.org/2000/svg">
<rect x="0.299805" y="0.5" width="36" height="36" rx="18" fill="#16C47F"/>
<path d="M17.6999 24.6612L17.6999 24.6612L25.0958 17.2653C24.0892 16.8464 22.897 16.1582 21.7695 15.0307C20.6418 13.903 19.9536 12.7106 19.5346 11.7039L12.1386 19.0999L12.1386 19.0999C11.5615 19.6771 11.2729 19.9657 11.0247 20.2838C10.7319 20.6592 10.4809 21.0653 10.2761 21.495C10.1025 21.8593 9.97348 22.2465 9.71537 23.0208L8.35425 27.1042C8.22723 27.4852 8.32641 27.9053 8.61044 28.1894C8.89446 28.4734 9.31458 28.5726 9.69565 28.4456L13.779 27.0844C14.5533 26.8263 14.9405 26.6973 15.3048 26.5237C15.7345 26.3189 16.1406 26.0679 16.516 25.7751C16.8342 25.5269 17.1228 25.2383 17.6999 24.6612Z" fill="white"/>
<path d="M27.148 15.2131C28.6837 13.6774 28.6837 11.1875 27.148 9.65178C25.6123 8.11607 23.1225 8.11607 21.5867 9.65178L20.6997 10.5388C20.7119 10.5755 20.7245 10.6127 20.7375 10.6504C21.0627 11.5875 21.6761 12.816 22.8301 13.97C23.9841 15.124 25.2126 15.7375 26.1498 16.0626C26.1873 16.0756 26.2243 16.0882 26.2608 16.1003L27.148 15.2131Z" fill="white"/>
</svg>
