<svg width="346" height="276" viewBox="0 0 346 276" fill="none" xmlns="http://www.w3.org/2000/svg">
<g clip-path="url(#clip0_34_3193)">
<path d="M277.5 65.7598H276V24.4241C276 21.2823 275.385 18.1713 274.19 15.2687C272.995 12.3661 271.244 9.72875 269.036 7.5072C266.829 5.28565 264.208 3.52341 261.323 2.32111C258.438 1.11882 255.347 0.500001 252.224 0.5H165.192C158.886 0.499986 152.839 3.02053 148.38 7.50714C143.921 11.9938 141.416 18.0789 141.416 24.424V251.195C141.416 257.54 143.921 263.626 148.38 268.112C152.839 272.599 158.886 275.119 165.192 275.119H252.224C258.53 275.119 264.577 272.599 269.036 268.112C273.495 263.626 276 257.54 276 251.195V95.1833H277.5L277.5 65.7598Z" fill="#3F3D56"/>
<path d="M270.94 24.5909V251.029C270.939 255.767 269.069 260.312 265.739 263.662C262.409 267.013 257.893 268.896 253.183 268.896H165.733C161.024 268.895 156.508 267.013 153.178 263.662C149.848 260.312 147.977 255.767 147.977 251.029V24.5909C147.977 19.8523 149.848 15.3078 153.178 11.9571C156.508 8.60641 161.024 6.72397 165.733 6.72388H176.342C175.821 8.01286 175.622 9.41099 175.764 10.7953C175.906 12.1796 176.383 13.5076 177.155 14.6626C177.926 15.8176 178.968 16.7641 180.188 17.4188C181.409 18.0736 182.77 18.4166 184.153 18.4176H234.013C235.396 18.4166 236.758 18.0736 237.978 17.4188C239.199 16.764 240.24 15.8175 241.012 14.6626C241.783 13.5076 242.261 12.1796 242.403 10.7953C242.544 9.41099 242.346 8.01286 241.825 6.72388H253.183C257.893 6.72397 262.409 8.60641 265.739 11.9571C269.069 15.3078 270.939 19.8523 270.94 24.5909Z" fill="white"/>
<path d="M170.395 27.7256C167.212 27.7256 164.16 28.9977 161.91 31.2622C159.659 33.5267 158.395 36.5979 158.395 39.8004C158.395 43.0029 159.659 46.0741 161.909 48.3386C164.16 50.6031 167.212 51.8753 170.395 51.8753C173.577 51.8753 176.63 50.6031 178.88 48.3387C181.131 46.0742 182.395 43.0029 182.395 39.8004C182.395 36.598 181.131 33.5267 178.88 31.2622C176.63 28.9978 173.577 27.7256 170.395 27.7256Z" fill="#E6E6E6"/>
<path d="M257.522 49.9886H194.522C193.726 49.9886 192.963 49.6706 192.4 49.1044C191.838 48.5383 191.522 47.7705 191.522 46.9699C191.522 46.1693 191.838 45.4015 192.4 44.8353C192.963 44.2692 193.726 43.9512 194.522 43.9512H257.522C258.317 43.9512 259.08 44.2692 259.643 44.8353C260.206 45.4015 260.522 46.1693 260.522 46.9699C260.522 47.7705 260.206 48.5383 259.643 49.1044C259.08 49.6706 258.317 49.9886 257.522 49.9886Z" fill="#E6E6E6"/>
<path d="M214.397 37.159H194.522C193.726 37.159 192.963 36.841 192.4 36.2749C191.838 35.7087 191.522 34.9409 191.522 34.1403C191.522 33.3397 191.838 32.5719 192.4 32.0057C192.963 31.4396 193.726 31.1216 194.522 31.1216H214.397C215.192 31.1216 215.955 31.4396 216.518 32.0057C217.081 32.5719 217.397 33.3397 217.397 34.1403C217.397 34.9409 217.081 35.7087 216.518 36.2749C215.955 36.841 215.192 37.159 214.397 37.159Z" fill="#E6E6E6"/>
<path d="M170.395 78.2891C167.212 78.2891 164.16 79.5612 161.91 81.8257C159.659 84.0901 158.395 87.1614 158.395 90.3639C158.395 93.5663 159.659 96.6376 161.909 98.9021C164.16 101.167 167.212 102.439 170.395 102.439C173.577 102.439 176.63 101.167 178.88 98.9021C181.131 96.6377 182.395 93.5664 182.395 90.3639C182.395 87.1615 181.131 84.0902 178.88 81.8257C176.63 79.5612 173.577 78.2891 170.395 78.2891Z" fill="#E6E6E6"/>
<path d="M257.522 100.552H194.522C193.726 100.552 192.963 100.234 192.4 99.6679C191.838 99.1018 191.522 98.334 191.522 97.5334C191.522 96.7328 191.838 95.9649 192.4 95.3988C192.963 94.8327 193.726 94.5146 194.522 94.5146H257.522C258.317 94.5146 259.08 94.8327 259.643 95.3988C260.206 95.9649 260.522 96.7328 260.522 97.5334C260.522 98.334 260.206 99.1018 259.643 99.6679C259.08 100.234 258.317 100.552 257.522 100.552Z" fill="#E6E6E6"/>
<path d="M214.397 87.7225H194.522C193.726 87.7225 192.963 87.4045 192.4 86.8383C191.838 86.2722 191.522 85.5044 191.522 84.7038C191.522 83.9032 191.838 83.1353 192.4 82.5692C192.963 82.0031 193.726 81.6851 194.522 81.6851H214.397C215.192 81.6851 215.955 82.0031 216.518 82.5692C217.081 83.1353 217.397 83.9032 217.397 84.7038C217.397 85.5044 217.081 86.2722 216.518 86.8383C215.955 87.4045 215.192 87.7225 214.397 87.7225Z" fill="#E6E6E6"/>
<path d="M170.395 179.416C167.212 179.416 164.16 180.688 161.91 182.953C159.659 185.217 158.395 188.288 158.395 191.491C158.395 194.693 159.659 197.765 161.909 200.029C164.16 202.294 167.212 203.566 170.395 203.566C173.577 203.566 176.63 202.294 178.88 200.029C181.131 197.765 182.395 194.693 182.395 191.491C182.395 188.288 181.131 185.217 178.88 182.953C176.63 180.688 173.577 179.416 170.395 179.416Z" fill="#E6E6E6"/>
<path d="M257.522 201.679H194.522C193.726 201.679 192.963 201.361 192.4 200.795C191.838 200.229 191.522 199.461 191.522 198.66C191.522 197.86 191.838 197.092 192.4 196.526C192.963 195.96 193.726 195.642 194.522 195.642H257.522C258.317 195.642 259.08 195.96 259.643 196.526C260.206 197.092 260.522 197.86 260.522 198.66C260.522 199.461 260.206 200.229 259.643 200.795C259.08 201.361 258.317 201.679 257.522 201.679Z" fill="#E6E6E6"/>
<path d="M214.397 188.849H194.522C193.726 188.849 192.963 188.531 192.4 187.965C191.838 187.399 191.522 186.631 191.522 185.831C191.522 185.03 191.838 184.262 192.4 183.696C192.963 183.13 193.726 182.812 194.522 182.812H214.397C215.192 182.812 215.955 183.13 216.518 183.696C217.081 184.262 217.397 185.03 217.397 185.831C217.397 186.631 217.081 187.399 216.518 187.965C215.955 188.531 215.192 188.849 214.397 188.849Z" fill="#E6E6E6"/>
<path d="M170.395 229.979C167.212 229.979 164.16 231.252 161.91 233.516C159.659 235.781 158.395 238.852 158.395 242.054C158.395 245.257 159.659 248.328 161.909 250.593C164.16 252.857 167.212 254.129 170.395 254.129C173.577 254.129 176.63 252.857 178.88 250.593C181.131 248.328 182.395 245.257 182.395 242.054C182.395 238.852 181.131 235.781 178.88 233.516C176.63 231.252 173.577 229.979 170.395 229.979Z" fill="#E6E6E6"/>
<path d="M257.522 252.243H194.522C193.726 252.243 192.963 251.924 192.4 251.358C191.838 250.792 191.522 250.024 191.522 249.224C191.522 248.423 191.838 247.655 192.4 247.089C192.963 246.523 193.726 246.205 194.522 246.205H257.522C258.317 246.205 259.08 246.523 259.643 247.089C260.206 247.655 260.522 248.423 260.522 249.224C260.522 250.024 260.206 250.792 259.643 251.358C259.08 251.924 258.317 252.243 257.522 252.243Z" fill="#E6E6E6"/>
<path d="M214.397 239.413H194.522C193.726 239.413 192.963 239.095 192.4 238.529C191.838 237.963 191.522 237.195 191.522 236.394C191.522 235.594 191.838 234.826 192.4 234.26C192.963 233.694 193.726 233.375 194.522 233.375H214.397C215.192 233.375 215.955 233.694 216.518 234.26C217.081 234.826 217.397 235.594 217.397 236.394C217.397 237.195 217.081 237.963 216.518 238.529C215.955 239.095 215.192 239.413 214.397 239.413Z" fill="#E6E6E6"/>
<path d="M281.833 169.983H137.083C135.443 169.981 133.87 169.324 132.71 168.157C131.55 166.99 130.898 165.407 130.896 163.756V116.966C130.898 115.316 131.55 113.733 132.71 112.566C133.87 111.399 135.443 110.742 137.083 110.74H281.833C283.474 110.742 285.046 111.399 286.206 112.566C287.366 113.733 288.019 115.316 288.021 116.966V163.756C288.019 165.407 287.366 166.99 286.206 168.157C285.046 169.324 283.474 169.981 281.833 169.983Z" fill="white"/>
<path d="M154.86 157.616C151.468 157.616 148.153 156.604 145.333 154.708C142.513 152.812 140.315 150.117 139.018 146.964C137.72 143.812 137.38 140.342 138.042 136.995C138.703 133.648 140.337 130.574 142.735 128.161C145.133 125.748 148.188 124.104 151.514 123.439C154.841 122.773 158.288 123.115 161.422 124.421C164.555 125.727 167.233 127.938 169.117 130.775C171.001 133.613 172.007 136.949 172.007 140.361C172.002 144.936 170.193 149.322 166.979 152.556C163.764 155.791 159.406 157.611 154.86 157.616ZM154.86 123.862C151.616 123.862 148.446 124.83 145.75 126.643C143.053 128.456 140.952 131.032 139.71 134.047C138.469 137.062 138.145 140.38 138.777 143.58C139.41 146.781 140.972 149.721 143.265 152.028C145.558 154.336 148.48 155.907 151.661 156.544C154.841 157.181 158.138 156.854 161.135 155.605C164.131 154.356 166.692 152.241 168.493 149.528C170.295 146.815 171.257 143.625 171.257 140.361C171.252 135.987 169.523 131.793 166.449 128.7C163.375 125.607 159.207 123.867 154.86 123.862Z" fill="#FF9D23"/>
<path d="M276.636 154.601H188.582C188.031 154.602 187.485 154.493 186.976 154.281C186.467 154.069 186.004 153.759 185.614 153.367C185.224 152.975 184.915 152.51 184.704 151.998C184.493 151.485 184.385 150.936 184.385 150.382C184.385 149.828 184.493 149.279 184.704 148.767C184.915 148.254 185.224 147.789 185.614 147.397C186.004 147.005 186.467 146.695 186.976 146.483C187.485 146.271 188.031 146.162 188.582 146.163H276.636C277.187 146.162 277.733 146.271 278.242 146.483C278.751 146.695 279.214 147.005 279.604 147.397C279.994 147.789 280.303 148.254 280.514 148.767C280.725 149.279 280.833 149.828 280.833 150.382C280.833 150.936 280.725 151.485 280.514 151.998C280.303 152.51 279.994 152.975 279.604 153.367C279.214 153.759 278.751 154.069 278.242 154.281C277.733 154.493 277.187 154.602 276.636 154.601Z" fill="#16C47F"/>
<path d="M216.361 136.67H188.582C188.031 136.67 187.485 136.561 186.976 136.35C186.467 136.138 186.004 135.827 185.614 135.435C185.224 135.043 184.915 134.578 184.704 134.066C184.493 133.554 184.385 133.005 184.385 132.45C184.385 131.896 184.493 131.347 184.704 130.835C184.915 130.323 185.224 129.857 185.614 129.466C186.004 129.074 186.467 128.763 186.976 128.551C187.485 128.339 188.031 128.231 188.582 128.231H216.361C216.912 128.231 217.457 128.339 217.967 128.551C218.476 128.763 218.938 129.074 219.328 129.466C219.718 129.857 220.027 130.323 220.238 130.835C220.449 131.347 220.558 131.896 220.558 132.45C220.558 133.005 220.449 133.554 220.238 134.066C220.027 134.578 219.718 135.043 219.328 135.435C218.938 135.827 218.476 136.138 217.967 136.35C217.457 136.561 216.912 136.67 216.361 136.67Z" fill="#16C47F"/>
<path d="M281.833 169.983H137.083C135.443 169.981 133.87 169.324 132.71 168.157C131.55 166.99 130.898 165.407 130.896 163.756V116.966C130.898 115.316 131.55 113.733 132.71 112.566C133.87 111.399 135.443 110.742 137.083 110.74H281.833C283.474 110.742 285.046 111.399 286.206 112.566C287.366 113.733 288.019 115.316 288.021 116.966V163.756C288.019 165.407 287.366 166.99 286.206 168.157C285.046 169.324 283.474 169.981 281.833 169.983ZM137.083 111.118C135.542 111.119 134.065 111.736 132.975 112.833C131.885 113.929 131.272 115.416 131.271 116.966V163.756C131.272 165.307 131.885 166.794 132.975 167.89C134.065 168.987 135.542 169.603 137.083 169.605H281.833C283.374 169.603 284.852 168.987 285.941 167.89C287.031 166.794 287.644 165.307 287.646 163.756V116.966C287.644 115.416 287.031 113.929 285.941 112.833C284.852 111.736 283.374 111.119 281.833 111.118H137.083Z" fill="#F93827"/>
<path d="M154.556 148.758C158.42 148.758 161.552 145.607 161.552 141.719C161.552 137.832 158.42 134.68 154.556 134.68C150.693 134.68 147.561 137.832 147.561 141.719C147.561 145.607 150.693 148.758 154.556 148.758Z" fill="#2F2E41"/>
<path d="M149.096 137.924C150.227 136.786 150.456 135.173 149.608 134.32C148.76 133.466 147.156 133.697 146.026 134.834C144.896 135.972 144.667 137.586 145.514 138.439C146.362 139.292 147.966 139.061 149.096 137.924Z" fill="#2F2E41"/>
<path d="M161.847 135.689C162.318 134.579 161.508 133.167 160.038 132.536C158.568 131.904 156.995 132.291 156.524 133.4C156.053 134.51 156.863 135.921 158.333 136.553C159.803 137.185 161.376 136.798 161.847 135.689Z" fill="#2F2E41"/>
<path d="M154.778 149.373C158.057 149.373 160.715 146.699 160.715 143.399C160.715 140.1 158.057 137.426 154.778 137.426C151.5 137.426 148.842 140.1 148.842 143.399C148.842 146.699 151.5 149.373 154.778 149.373Z" fill="#FFB8B8"/>
<path d="M148.54 139.642C149.897 140.583 151.507 141.083 153.155 141.077C152.567 141.487 151.898 141.764 151.193 141.889C153.384 142.362 155.648 142.374 157.844 141.926C158.332 141.848 158.803 141.685 159.236 141.445C159.452 141.324 159.64 141.158 159.788 140.959C159.936 140.76 160.041 140.531 160.096 140.289C160.242 139.45 159.592 138.688 158.917 138.174C157.884 137.4 156.692 136.867 155.428 136.612C154.165 136.358 152.861 136.39 151.611 136.705C150.778 136.874 150.021 137.305 149.447 137.936C148.917 138.595 148.76 139.612 149.265 140.291L148.54 139.642Z" fill="#2F2E41"/>
<path d="M67.1506 193.383C66.977 192.817 66.9289 192.219 67.0096 191.632C67.0904 191.045 67.2981 190.483 67.618 189.985C67.938 189.488 68.3625 189.067 68.8617 188.752C69.3608 188.438 69.9224 188.237 70.5069 188.165L89.7567 165.531L94.2465 170.274L75.0724 191.976C75.1285 192.972 74.8194 193.955 74.2039 194.737C73.5883 195.519 72.709 196.047 71.7325 196.22C70.756 196.393 69.7503 196.2 68.9058 195.677C68.0613 195.155 67.4368 194.338 67.1506 193.383Z" fill="#A0616A"/>
<path d="M83.4942 169.065C83.4745 168.822 83.5073 168.577 83.5901 168.348C83.673 168.118 83.804 167.91 83.9743 167.736L89.9214 161.668C90.6531 160.659 91.7525 159.984 92.9785 159.79C94.2045 159.595 95.457 159.899 96.4612 160.632C97.4653 161.366 98.1392 162.471 98.3349 163.704C98.5306 164.938 98.2321 166.199 97.505 167.211L93.5508 174.778C93.4379 174.994 93.2801 175.183 93.0881 175.332C92.8962 175.482 92.6745 175.587 92.4383 175.642C92.202 175.697 91.9568 175.701 91.7192 175.652C91.4816 175.603 91.2573 175.503 91.0615 175.359L84.1805 170.299C83.9846 170.155 83.8219 169.97 83.7034 169.757C83.585 169.544 83.5136 169.308 83.4942 169.065Z" fill="#16C47F"/>
<path d="M97.4584 155.177C102.545 155.177 106.669 151.028 106.669 145.909C106.669 140.791 102.545 136.641 97.4584 136.641C92.3717 136.641 88.248 140.791 88.248 145.909C88.248 151.028 92.3717 155.177 97.4584 155.177Z" fill="#A0616A"/>
<path d="M92.4505 187.382C92.2674 187.245 92.1142 187.071 92.0003 186.873C91.8864 186.674 91.8142 186.453 91.7883 186.225C91.1516 180.869 90.2249 175.552 89.0124 170.298C88.4756 167.937 88.809 165.46 89.9506 163.327C91.0922 161.195 92.9644 159.552 95.2192 158.704C97.474 157.856 99.9581 157.861 102.21 158.717C104.461 159.574 106.327 161.223 107.461 163.36C111.083 170.201 111.36 179.592 111.311 183.312C111.305 183.709 111.161 184.092 110.904 184.393C110.647 184.694 110.293 184.895 109.903 184.96L93.7428 187.697C93.6486 187.713 93.5533 187.721 93.4578 187.721C93.0942 187.721 92.7407 187.602 92.4505 187.382Z" fill="#2F2E41"/>
<path d="M127.34 157.206C127.294 157.409 127.264 157.616 127.251 157.825L111.141 167.176L107.226 164.908L103.052 170.406L109.596 175.099C110.124 175.479 110.761 175.675 111.41 175.659C112.059 175.643 112.685 175.416 113.195 175.011L129.806 161.825C130.556 162.104 131.372 162.147 132.147 161.948C132.921 161.749 133.617 161.317 134.142 160.711C134.667 160.104 134.996 159.351 135.085 158.551C135.174 157.752 135.019 156.944 134.64 156.236C134.262 155.527 133.678 154.951 132.967 154.585C132.255 154.218 131.45 154.078 130.657 154.183C129.865 154.289 129.123 154.634 128.53 155.174C127.938 155.714 127.523 156.423 127.34 157.206Z" fill="#A0616A"/>
<path d="M110.603 167.619L105.397 174.408C105.248 174.602 105.061 174.76 104.846 174.874C104.631 174.988 104.395 175.053 104.153 175.067C103.911 175.08 103.669 175.041 103.443 174.951C103.217 174.862 103.013 174.725 102.845 174.549L96.9511 168.39C95.9732 167.622 95.338 166.495 95.1847 165.256C95.0314 164.017 95.3726 162.768 96.1333 161.782C96.8941 160.796 98.0124 160.153 99.243 159.996C100.474 159.838 101.716 160.178 102.699 160.94L110.091 165.1C110.303 165.219 110.486 165.382 110.629 165.579C110.772 165.776 110.872 166.002 110.92 166.241C110.969 166.48 110.966 166.727 110.911 166.965C110.856 167.202 110.751 167.425 110.603 167.619Z" fill="#16C47F"/>
<path d="M118.72 270.842L123.317 270.842L124.399 253.056L118.719 252.998L118.72 270.842Z" fill="#A0616A"/>
<path d="M117.547 269.331L126.601 269.331H126.601C127.359 269.331 128.109 269.481 128.809 269.773C129.509 270.065 130.145 270.492 130.681 271.032C131.217 271.571 131.642 272.211 131.932 272.915C132.222 273.619 132.371 274.374 132.371 275.137V275.326L117.547 275.326L117.547 269.331Z" fill="#2F2E41"/>
<path d="M74.8445 270.842L79.442 270.841L81.629 252.998L74.8438 252.998L74.8445 270.842Z" fill="#A0616A"/>
<path d="M73.6719 269.331L82.7258 269.331H82.7262C83.4839 269.331 84.2342 269.481 84.9342 269.773C85.6343 270.065 86.2704 270.492 86.8061 271.032C87.3419 271.571 87.7669 272.211 88.0569 272.915C88.3469 273.619 88.4961 274.374 88.4961 275.137V275.326L73.6721 275.326L73.6719 269.331Z" fill="#2F2E41"/>
<path d="M79.8552 261.575L74.1496 260.826C73.9112 260.794 73.6822 260.712 73.4779 260.585C73.2737 260.457 73.0989 260.287 72.9653 260.086C72.8316 259.885 72.7423 259.657 72.7032 259.418C72.664 259.18 72.6761 258.935 72.7384 258.702L81.0611 217.549C81.8885 213.553 82.4609 209.509 82.775 205.44C83.018 202.13 83.9811 197.448 87.1896 193.948C88.4944 192.511 89.7121 190.997 90.8363 189.414L93.3555 185.904L110.138 183.217L110.149 183.426C110.874 196.845 114.338 209.969 120.325 221.982C123.018 227.385 124.563 233.292 124.864 239.329L125.815 257.989C125.826 258.226 125.789 258.462 125.705 258.683C125.621 258.904 125.492 259.105 125.326 259.273C125.161 259.442 124.962 259.574 124.742 259.66C124.523 259.746 124.288 259.784 124.053 259.772L118.598 259.522C118.229 259.505 117.875 259.366 117.591 259.127C117.308 258.887 117.11 258.561 117.028 258.198L112.474 237.754C112.433 237.571 112.355 237.4 112.244 237.25L97.9522 218.076C97.8503 217.939 97.7133 217.833 97.556 217.768C97.3987 217.704 97.2269 217.683 97.059 217.71C96.8911 217.736 96.7334 217.807 96.6027 217.916C96.4721 218.026 96.3734 218.169 96.3173 218.33L81.6662 260.451C81.5494 260.783 81.3335 261.071 81.0479 261.274C80.7624 261.478 80.4213 261.588 80.0713 261.589C79.9991 261.589 79.9268 261.584 79.8552 261.575Z" fill="#2F2E41"/>
<path d="M87.2744 139.476C88.006 137.245 88.5461 134.954 88.8887 132.63C88.9963 131.276 88.6518 129.82 87.6723 128.886C85.8393 127.139 82.725 127.971 80.8081 129.625C78.0377 132.015 76.656 135.688 76.1338 139.323C75.6116 142.957 75.8414 146.652 75.7157 150.322C75.59 153.992 75.0683 157.766 73.209 160.925C71.3496 164.085 67.8992 166.51 64.2597 166.242C62.7907 166.162 61.3958 165.567 60.317 164.56C59.7875 164.053 59.3865 163.426 59.1476 162.731C58.9087 162.036 58.8389 161.294 58.944 160.566C57.0838 163.917 58.0268 168.46 60.8014 171.095C63.5761 173.73 67.844 174.475 71.4916 173.35C75.1393 172.225 78.1414 169.404 79.9346 166.015C81.7278 162.627 82.3849 158.713 82.2897 154.875C82.2166 151.928 81.7187 148.957 82.2136 146.051C82.7086 143.145 84.5158 140.195 87.3655 139.511L87.2744 139.476Z" fill="#2F2E41"/>
<path d="M100.072 143.297C100.558 144.93 102.416 145.937 104.088 145.661C105.76 145.384 107.134 143.999 107.642 142.373C108.102 140.712 107.914 138.937 107.117 137.411C106.678 136.496 106.063 135.677 105.309 135.001C104.555 134.325 103.676 133.806 102.723 133.472C101.764 133.152 100.742 133.069 99.7444 133.23C98.7466 133.39 97.8017 133.789 96.9894 134.394C96.9029 134.027 96.7208 133.69 96.4618 133.418C96.2028 133.145 95.8763 132.947 95.5159 132.844C94.7902 132.647 94.0243 132.658 93.3047 132.876C91.2312 133.471 89.4344 134.786 88.2338 136.588C87.0486 138.385 86.2645 140.419 85.9356 142.55C85.3698 145.745 85.5785 149.237 87.3621 151.941C89.1457 154.646 92.7947 156.243 95.7549 154.954C95.9395 154.004 95.5023 153.048 94.9963 152.225C94.4904 151.402 93.8909 150.601 93.6965 149.653C93.5022 148.706 93.8747 147.547 94.7856 147.237C95.5627 146.972 96.3913 147.401 97.21 147.452C97.6749 147.482 98.1393 147.388 98.5567 147.179C98.974 146.971 99.3296 146.656 99.5877 146.266C99.8459 145.876 99.9975 145.424 100.027 144.956C100.057 144.488 99.9645 144.021 99.7582 143.601L100.072 143.297Z" fill="#2F2E41"/>
<path d="M325.17 275.5H21.8304C21.7428 275.5 21.6588 275.46 21.5968 275.39C21.5348 275.319 21.5 275.223 21.5 275.123C21.5 275.023 21.5348 274.927 21.5968 274.856C21.6588 274.785 21.7428 274.745 21.8304 274.745H325.17C325.257 274.745 325.341 274.785 325.403 274.856C325.465 274.927 325.5 275.023 325.5 275.123C325.5 275.223 325.465 275.319 325.403 275.39C325.341 275.46 325.257 275.5 325.17 275.5Z" fill="#CCCCCC"/>
</g>
<defs>
<clipPath id="clip0_34_3193">
<rect width="345" height="275" fill="white" transform="translate(0.5 0.5)"/>
</clipPath>
</defs>
</svg>
