<svg width="394" height="392" viewBox="0 0 394 392" fill="none" xmlns="http://www.w3.org/2000/svg">
<circle cx="256" cy="55.5" r="285.643" fill="url(#paint0_linear_34_3190)" fill-opacity="0.6"/>
<g clip-path="url(#clip0_34_3190)">
<path d="M301.5 181.76H300V140.424C300 137.282 299.385 134.171 298.19 131.269C296.995 128.366 295.244 125.729 293.036 123.507C290.829 121.286 288.208 119.523 285.323 118.321C282.438 117.119 279.347 116.5 276.224 116.5H189.192C182.886 116.5 176.839 119.021 172.38 123.507C167.921 127.994 165.416 134.079 165.416 140.424V367.195C165.416 373.54 167.921 379.626 172.38 384.112C176.839 388.599 182.886 391.119 189.192 391.119H276.224C282.53 391.119 288.577 388.599 293.036 384.112C297.495 379.626 300 373.54 300 367.195V211.183H301.5L301.5 181.76Z" fill="#3F3D56"/>
<path d="M294.94 140.591V367.029C294.939 371.767 293.069 376.312 289.739 379.662C286.409 383.013 281.893 384.896 277.183 384.896H189.733C185.024 384.895 180.508 383.013 177.178 379.662C173.848 376.312 171.977 371.767 171.977 367.029V140.591C171.977 135.852 173.848 131.308 177.178 127.957C180.508 124.606 185.024 122.724 189.733 122.724H200.342C199.821 124.013 199.622 125.411 199.764 126.795C199.906 128.18 200.383 129.508 201.155 130.663C201.926 131.818 202.968 132.764 204.188 133.419C205.409 134.074 206.77 134.417 208.153 134.418H258.013C259.396 134.417 260.758 134.074 261.978 133.419C263.199 132.764 264.24 131.818 265.012 130.663C265.783 129.508 266.261 128.18 266.403 126.795C266.544 125.411 266.346 124.013 265.825 122.724H277.183C281.893 122.724 286.409 124.606 289.739 127.957C293.069 131.308 294.939 135.852 294.94 140.591Z" fill="white"/>
<path d="M194.395 143.726C191.212 143.726 188.16 144.998 185.91 147.262C183.659 149.527 182.395 152.598 182.395 155.8C182.395 159.003 183.659 162.074 185.909 164.339C188.16 166.603 191.212 167.875 194.395 167.875C197.577 167.875 200.63 166.603 202.88 164.339C205.131 162.074 206.395 159.003 206.395 155.8C206.395 152.598 205.131 149.527 202.88 147.262C200.63 144.998 197.577 143.726 194.395 143.726Z" fill="#E6E6E6"/>
<path d="M281.522 165.989H218.522C217.726 165.989 216.963 165.671 216.4 165.104C215.838 164.538 215.522 163.771 215.522 162.97C215.522 162.169 215.838 161.401 216.4 160.835C216.963 160.269 217.726 159.951 218.522 159.951H281.522C282.317 159.951 283.08 160.269 283.643 160.835C284.206 161.401 284.522 162.169 284.522 162.97C284.522 163.771 284.206 164.538 283.643 165.104C283.08 165.671 282.317 165.989 281.522 165.989Z" fill="#E6E6E6"/>
<path d="M238.397 153.159H218.522C217.726 153.159 216.963 152.841 216.4 152.275C215.838 151.709 215.522 150.941 215.522 150.14C215.522 149.34 215.838 148.572 216.4 148.006C216.963 147.44 217.726 147.122 218.522 147.122H238.397C239.192 147.122 239.955 147.44 240.518 148.006C241.081 148.572 241.397 149.34 241.397 150.14C241.397 150.941 241.081 151.709 240.518 152.275C239.955 152.841 239.192 153.159 238.397 153.159Z" fill="#E6E6E6"/>
<path d="M194.395 194.289C191.212 194.289 188.16 195.561 185.91 197.826C183.659 200.09 182.395 203.161 182.395 206.364C182.395 209.566 183.659 212.638 185.909 214.902C188.16 217.167 191.212 218.439 194.395 218.439C197.577 218.439 200.63 217.167 202.88 214.902C205.131 212.638 206.395 209.566 206.395 206.364C206.395 203.161 205.131 200.09 202.88 197.826C200.63 195.561 197.577 194.289 194.395 194.289Z" fill="#E6E6E6"/>
<path d="M281.522 216.552H218.522C217.726 216.552 216.963 216.234 216.4 215.668C215.838 215.102 215.522 214.334 215.522 213.533C215.522 212.733 215.838 211.965 216.4 211.399C216.963 210.833 217.726 210.515 218.522 210.515H281.522C282.317 210.515 283.08 210.833 283.643 211.399C284.206 211.965 284.522 212.733 284.522 213.533C284.522 214.334 284.206 215.102 283.643 215.668C283.08 216.234 282.317 216.552 281.522 216.552Z" fill="#E6E6E6"/>
<path d="M238.397 203.722H218.522C217.726 203.722 216.963 203.404 216.4 202.838C215.838 202.272 215.522 201.504 215.522 200.704C215.522 199.903 215.838 199.135 216.4 198.569C216.963 198.003 217.726 197.685 218.522 197.685H238.397C239.192 197.685 239.955 198.003 240.518 198.569C241.081 199.135 241.397 199.903 241.397 200.704C241.397 201.504 241.081 202.272 240.518 202.838C239.955 203.404 239.192 203.722 238.397 203.722Z" fill="#E6E6E6"/>
<path d="M194.395 295.416C191.212 295.416 188.16 296.688 185.91 298.953C183.659 301.217 182.395 304.288 182.395 307.491C182.395 310.693 183.659 313.765 185.909 316.029C188.16 318.294 191.212 319.566 194.395 319.566C197.577 319.566 200.63 318.294 202.88 316.029C205.131 313.765 206.395 310.693 206.395 307.491C206.395 304.288 205.131 301.217 202.88 298.953C200.63 296.688 197.577 295.416 194.395 295.416Z" fill="#E6E6E6"/>
<path d="M281.522 317.679H218.522C217.726 317.679 216.963 317.361 216.4 316.795C215.838 316.229 215.522 315.461 215.522 314.66C215.522 313.86 215.838 313.092 216.4 312.526C216.963 311.96 217.726 311.642 218.522 311.642H281.522C282.317 311.642 283.08 311.96 283.643 312.526C284.206 313.092 284.522 313.86 284.522 314.66C284.522 315.461 284.206 316.229 283.643 316.795C283.08 317.361 282.317 317.679 281.522 317.679Z" fill="#E6E6E6"/>
<path d="M238.397 304.849H218.522C217.726 304.849 216.963 304.531 216.4 303.965C215.838 303.399 215.522 302.631 215.522 301.831C215.522 301.03 215.838 300.262 216.4 299.696C216.963 299.13 217.726 298.812 218.522 298.812H238.397C239.192 298.812 239.955 299.13 240.518 299.696C241.081 300.262 241.397 301.03 241.397 301.831C241.397 302.631 241.081 303.399 240.518 303.965C239.955 304.531 239.192 304.849 238.397 304.849Z" fill="#E6E6E6"/>
<path d="M194.395 345.979C191.212 345.979 188.16 347.252 185.91 349.516C183.659 351.781 182.395 354.852 182.395 358.054C182.395 361.257 183.659 364.328 185.909 366.593C188.16 368.857 191.212 370.129 194.395 370.129C197.577 370.129 200.63 368.857 202.88 366.593C205.131 364.328 206.395 361.257 206.395 358.054C206.395 354.852 205.131 351.781 202.88 349.516C200.63 347.252 197.577 345.979 194.395 345.979Z" fill="#E6E6E6"/>
<path d="M281.522 368.243H218.522C217.726 368.243 216.963 367.924 216.4 367.358C215.838 366.792 215.522 366.024 215.522 365.224C215.522 364.423 215.838 363.655 216.4 363.089C216.963 362.523 217.726 362.205 218.522 362.205H281.522C282.317 362.205 283.08 362.523 283.643 363.089C284.206 363.655 284.522 364.423 284.522 365.224C284.522 366.024 284.206 366.792 283.643 367.358C283.08 367.924 282.317 368.243 281.522 368.243Z" fill="#E6E6E6"/>
<path d="M238.397 355.413H218.522C217.726 355.413 216.963 355.095 216.4 354.529C215.838 353.963 215.522 353.195 215.522 352.394C215.522 351.594 215.838 350.826 216.4 350.26C216.963 349.694 217.726 349.375 218.522 349.375H238.397C239.192 349.375 239.955 349.694 240.518 350.26C241.081 350.826 241.397 351.594 241.397 352.394C241.397 353.195 241.081 353.963 240.518 354.529C239.955 355.095 239.192 355.413 238.397 355.413Z" fill="#E6E6E6"/>
<path d="M305.833 285.983H161.083C159.443 285.981 157.87 285.324 156.71 284.157C155.55 282.99 154.898 281.407 154.896 279.756V232.966C154.898 231.316 155.55 229.733 156.71 228.566C157.87 227.399 159.443 226.742 161.083 226.74H305.833C307.474 226.742 309.046 227.399 310.206 228.566C311.366 229.733 312.019 231.316 312.021 232.966V279.756C312.019 281.407 311.366 282.99 310.206 284.157C309.046 285.324 307.474 285.981 305.833 285.983Z" fill="white"/>
<path d="M178.86 273.616C175.468 273.616 172.153 272.604 169.333 270.708C166.513 268.812 164.315 266.117 163.018 262.964C161.72 259.812 161.38 256.342 162.042 252.995C162.703 249.648 164.337 246.574 166.735 244.161C169.133 241.748 172.188 240.104 175.514 239.439C178.841 238.773 182.288 239.115 185.422 240.421C188.555 241.727 191.233 243.938 193.117 246.775C195.001 249.613 196.007 252.949 196.007 256.361C196.002 260.936 194.193 265.322 190.979 268.556C187.764 271.791 183.406 273.611 178.86 273.616ZM178.86 239.862C175.616 239.862 172.446 240.83 169.75 242.643C167.053 244.456 164.952 247.032 163.71 250.047C162.469 253.062 162.145 256.38 162.777 259.58C163.41 262.781 164.972 265.721 167.265 268.028C169.558 270.336 172.48 271.907 175.661 272.544C178.841 273.181 182.138 272.854 185.135 271.605C188.131 270.356 190.692 268.241 192.493 265.528C194.295 262.815 195.257 259.625 195.257 256.361C195.252 251.987 193.523 247.793 190.449 244.7C187.375 241.607 183.207 239.867 178.86 239.862Z" fill="#FF9D23"/>
<path d="M300.636 270.601H212.582C212.031 270.602 211.485 270.493 210.976 270.281C210.467 270.069 210.004 269.759 209.614 269.367C209.224 268.975 208.915 268.51 208.704 267.998C208.493 267.485 208.385 266.936 208.385 266.382C208.385 265.828 208.493 265.279 208.704 264.767C208.915 264.254 209.224 263.789 209.614 263.397C210.004 263.005 210.467 262.695 210.976 262.483C211.485 262.271 212.031 262.162 212.582 262.163H300.636C301.187 262.162 301.733 262.271 302.242 262.483C302.751 262.695 303.214 263.005 303.604 263.397C303.994 263.789 304.303 264.254 304.514 264.767C304.725 265.279 304.833 265.828 304.833 266.382C304.833 266.936 304.725 267.485 304.514 267.998C304.303 268.51 303.994 268.975 303.604 269.367C303.214 269.759 302.751 270.069 302.242 270.281C301.733 270.493 301.187 270.602 300.636 270.601Z" fill="#16C47F"/>
<path d="M240.361 252.67H212.582C212.031 252.67 211.485 252.561 210.976 252.35C210.467 252.138 210.004 251.827 209.614 251.435C209.224 251.043 208.915 250.578 208.704 250.066C208.493 249.554 208.385 249.005 208.385 248.45C208.385 247.896 208.493 247.347 208.704 246.835C208.915 246.323 209.224 245.857 209.614 245.466C210.004 245.074 210.467 244.763 210.976 244.551C211.485 244.339 212.031 244.231 212.582 244.231H240.361C240.912 244.231 241.457 244.339 241.967 244.551C242.476 244.763 242.938 245.074 243.328 245.466C243.718 245.857 244.027 246.323 244.238 246.835C244.449 247.347 244.558 247.896 244.558 248.45C244.558 249.005 244.449 249.554 244.238 250.066C244.027 250.578 243.718 251.043 243.328 251.435C242.938 251.827 242.476 252.138 241.967 252.35C241.457 252.561 240.912 252.67 240.361 252.67Z" fill="#16C47F"/>
<path d="M305.833 285.983H161.083C159.443 285.981 157.87 285.324 156.71 284.157C155.55 282.99 154.898 281.407 154.896 279.756V232.966C154.898 231.316 155.55 229.733 156.71 228.566C157.87 227.399 159.443 226.742 161.083 226.74H305.833C307.474 226.742 309.046 227.399 310.206 228.566C311.366 229.733 312.019 231.316 312.021 232.966V279.756C312.019 281.407 311.366 282.99 310.206 284.157C309.046 285.324 307.474 285.981 305.833 285.983ZM161.083 227.118C159.542 227.119 158.065 227.736 156.975 228.833C155.885 229.929 155.272 231.416 155.271 232.966V279.756C155.272 281.307 155.885 282.794 156.975 283.89C158.065 284.987 159.542 285.603 161.083 285.605H305.833C307.374 285.603 308.852 284.987 309.941 283.89C311.031 282.794 311.644 281.307 311.646 279.756V232.966C311.644 231.416 311.031 229.929 309.941 228.833C308.852 227.736 307.374 227.119 305.833 227.118H161.083Z" fill="#F93827"/>
<path d="M178.556 264.758C182.42 264.758 185.552 261.607 185.552 257.719C185.552 253.832 182.42 250.68 178.556 250.68C174.693 250.68 171.561 253.832 171.561 257.719C171.561 261.607 174.693 264.758 178.556 264.758Z" fill="#2F2E41"/>
<path d="M173.096 253.924C174.227 252.786 174.456 251.173 173.608 250.32C172.76 249.466 171.156 249.697 170.026 250.834C168.896 251.972 168.667 253.586 169.514 254.439C170.362 255.292 171.966 255.061 173.096 253.924Z" fill="#2F2E41"/>
<path d="M185.847 251.689C186.318 250.579 185.508 249.167 184.038 248.536C182.568 247.904 180.995 248.291 180.524 249.4C180.053 250.51 180.863 251.921 182.333 252.553C183.803 253.185 185.376 252.798 185.847 251.689Z" fill="#2F2E41"/>
<path d="M178.778 265.373C182.057 265.373 184.715 262.699 184.715 259.399C184.715 256.1 182.057 253.426 178.778 253.426C175.5 253.426 172.842 256.1 172.842 259.399C172.842 262.699 175.5 265.373 178.778 265.373Z" fill="#FFB8B8"/>
<path d="M172.54 255.642C173.897 256.583 175.507 257.083 177.155 257.077C176.567 257.487 175.898 257.764 175.193 257.889C177.384 258.362 179.648 258.374 181.844 257.926C182.332 257.848 182.803 257.685 183.236 257.445C183.452 257.324 183.64 257.158 183.788 256.959C183.936 256.76 184.041 256.531 184.096 256.289C184.242 255.45 183.592 254.688 182.917 254.174C181.884 253.4 180.692 252.867 179.428 252.612C178.165 252.358 176.861 252.39 175.611 252.705C174.778 252.874 174.021 253.305 173.447 253.936C172.917 254.595 172.76 255.612 173.265 256.291L172.54 255.642Z" fill="#2F2E41"/>
<path d="M91.1506 309.383C90.977 308.817 90.9289 308.219 91.0096 307.632C91.0904 307.045 91.2981 306.483 91.618 305.985C91.938 305.488 92.3625 305.067 92.8617 304.752C93.3608 304.438 93.9224 304.237 94.5069 304.165L113.757 281.531L118.246 286.274L99.0724 307.976C99.1285 308.972 98.8194 309.955 98.2039 310.737C97.5883 311.519 96.709 312.047 95.7325 312.22C94.756 312.393 93.7503 312.2 92.9058 311.677C92.0613 311.155 91.4368 310.338 91.1506 309.383Z" fill="#A0616A"/>
<path d="M107.494 285.065C107.475 284.822 107.507 284.577 107.59 284.348C107.673 284.118 107.804 283.91 107.974 283.736L113.921 277.668C114.653 276.659 115.753 275.984 116.979 275.79C118.205 275.595 119.457 275.899 120.461 276.632C121.465 277.366 122.139 278.471 122.335 279.704C122.531 280.938 122.232 282.199 121.505 283.211L117.551 290.778C117.438 290.994 117.28 291.183 117.088 291.332C116.896 291.482 116.675 291.587 116.438 291.642C116.202 291.697 115.957 291.701 115.719 291.652C115.482 291.603 115.257 291.503 115.062 291.359L108.18 286.299C107.985 286.155 107.822 285.97 107.703 285.757C107.585 285.544 107.514 285.308 107.494 285.065Z" fill="#16C47F"/>
<path d="M121.458 271.177C126.545 271.177 130.669 267.028 130.669 261.909C130.669 256.791 126.545 252.641 121.458 252.641C116.372 252.641 112.248 256.791 112.248 261.909C112.248 267.028 116.372 271.177 121.458 271.177Z" fill="#A0616A"/>
<path d="M116.45 303.382C116.267 303.245 116.114 303.071 116 302.873C115.886 302.674 115.814 302.453 115.788 302.225C115.152 296.869 114.225 291.552 113.012 286.298C112.476 283.937 112.809 281.46 113.951 279.327C115.092 277.195 116.964 275.552 119.219 274.704C121.474 273.856 123.958 273.861 126.21 274.717C128.461 275.574 130.327 277.223 131.461 279.36C135.083 286.201 135.36 295.592 135.311 299.312C135.305 299.709 135.161 300.092 134.904 300.393C134.647 300.694 134.293 300.895 133.903 300.96L117.743 303.697C117.649 303.713 117.553 303.721 117.458 303.721C117.094 303.721 116.741 303.602 116.45 303.382Z" fill="#2F2E41"/>
<path d="M151.34 273.206C151.294 273.409 151.264 273.616 151.251 273.825L135.141 283.176L131.226 280.908L127.052 286.406L133.596 291.099C134.124 291.479 134.761 291.675 135.41 291.659C136.059 291.643 136.685 291.416 137.195 291.011L153.806 277.825C154.556 278.104 155.372 278.147 156.147 277.948C156.921 277.749 157.617 277.317 158.142 276.711C158.667 276.104 158.996 275.351 159.085 274.551C159.174 273.752 159.019 272.944 158.64 272.236C158.262 271.527 157.678 270.951 156.967 270.585C156.255 270.218 155.45 270.078 154.657 270.183C153.865 270.289 153.123 270.634 152.53 271.174C151.938 271.714 151.523 272.423 151.34 273.206Z" fill="#A0616A"/>
<path d="M134.603 283.619L129.397 290.408C129.248 290.602 129.061 290.76 128.846 290.874C128.631 290.988 128.395 291.053 128.153 291.067C127.911 291.08 127.669 291.041 127.443 290.951C127.217 290.862 127.013 290.725 126.845 290.549L120.951 284.39C119.973 283.622 119.338 282.495 119.185 281.256C119.031 280.017 119.373 278.768 120.133 277.782C120.894 276.796 122.012 276.153 123.243 275.996C124.474 275.838 125.716 276.178 126.699 276.94L134.091 281.1C134.303 281.219 134.486 281.382 134.629 281.579C134.772 281.776 134.872 282.002 134.92 282.241C134.969 282.48 134.966 282.727 134.911 282.965C134.856 283.202 134.751 283.425 134.603 283.619Z" fill="#16C47F"/>
<path d="M142.72 386.842L147.317 386.842L148.399 369.056L142.719 368.998L142.72 386.842Z" fill="#A0616A"/>
<path d="M141.547 385.331L150.601 385.331H150.601C151.359 385.331 152.109 385.481 152.809 385.773C153.509 386.065 154.145 386.492 154.681 387.032C155.217 387.571 155.642 388.211 155.932 388.915C156.222 389.619 156.371 390.374 156.371 391.137V391.326L141.547 391.326L141.547 385.331Z" fill="#2F2E41"/>
<path d="M98.8445 386.842L103.442 386.841L105.629 368.998L98.8438 368.998L98.8445 386.842Z" fill="#A0616A"/>
<path d="M97.6719 385.331L106.726 385.331H106.726C107.484 385.331 108.234 385.481 108.934 385.773C109.634 386.065 110.27 386.492 110.806 387.032C111.342 387.571 111.767 388.211 112.057 388.915C112.347 389.619 112.496 390.374 112.496 391.137V391.326L97.6721 391.326L97.6719 385.331Z" fill="#2F2E41"/>
<path d="M103.855 377.575L98.1496 376.826C97.9112 376.794 97.6822 376.712 97.4779 376.585C97.2737 376.457 97.0989 376.287 96.9653 376.086C96.8316 375.885 96.7423 375.657 96.7032 375.418C96.664 375.18 96.6761 374.935 96.7384 374.702L105.061 333.549C105.888 329.553 106.461 325.509 106.775 321.44C107.018 318.13 107.981 313.448 111.19 309.948C112.494 308.511 113.712 306.997 114.836 305.414L117.356 301.904L134.138 299.217L134.149 299.426C134.874 312.845 138.338 325.969 144.325 337.982C147.018 343.385 148.563 349.292 148.864 355.329L149.815 373.989C149.826 374.226 149.789 374.462 149.705 374.683C149.621 374.904 149.492 375.105 149.326 375.273C149.161 375.442 148.962 375.574 148.742 375.66C148.523 375.746 148.288 375.784 148.053 375.772L142.598 375.522C142.229 375.505 141.875 375.366 141.591 375.127C141.308 374.887 141.11 374.561 141.028 374.198L136.474 353.754C136.433 353.571 136.355 353.4 136.244 353.25L121.952 334.076C121.85 333.939 121.713 333.833 121.556 333.768C121.399 333.704 121.227 333.683 121.059 333.71C120.891 333.736 120.733 333.807 120.603 333.916C120.472 334.026 120.373 334.169 120.317 334.33L105.666 376.451C105.549 376.783 105.333 377.071 105.048 377.274C104.762 377.478 104.421 377.588 104.071 377.589C103.999 377.589 103.927 377.584 103.855 377.575Z" fill="#2F2E41"/>
<path d="M111.274 255.476C112.006 253.245 112.546 250.954 112.889 248.63C112.996 247.276 112.652 245.82 111.672 244.886C109.839 243.139 106.725 243.971 104.808 245.625C102.038 248.015 100.656 251.688 100.134 255.323C99.6116 258.957 99.8414 262.652 99.7157 266.322C99.59 269.992 99.0683 273.766 97.209 276.925C95.3496 280.085 91.8992 282.51 88.2597 282.242C86.7907 282.162 85.3958 281.567 84.317 280.56C83.7875 280.053 83.3865 279.426 83.1476 278.731C82.9087 278.036 82.8389 277.294 82.944 276.566C81.0838 279.917 82.0268 284.46 84.8014 287.095C87.5761 289.73 91.844 290.475 95.4916 289.35C99.1393 288.225 102.141 285.404 103.935 282.015C105.728 278.627 106.385 274.713 106.29 270.875C106.217 267.928 105.719 264.957 106.214 262.051C106.709 259.145 108.516 256.195 111.366 255.511L111.274 255.476Z" fill="#2F2E41"/>
<path d="M124.072 259.297C124.558 260.93 126.416 261.937 128.088 261.661C129.76 261.384 131.134 259.999 131.642 258.373C132.102 256.712 131.914 254.937 131.117 253.411C130.678 252.496 130.063 251.677 129.309 251.001C128.555 250.325 127.676 249.806 126.723 249.472C125.764 249.152 124.742 249.069 123.744 249.23C122.747 249.39 121.802 249.789 120.989 250.394C120.903 250.027 120.721 249.69 120.462 249.418C120.203 249.145 119.876 248.947 119.516 248.844C118.79 248.647 118.024 248.658 117.305 248.876C115.231 249.471 113.434 250.786 112.234 252.588C111.049 254.385 110.265 256.419 109.936 258.55C109.37 261.745 109.579 265.237 111.362 267.941C113.146 270.646 116.795 272.243 119.755 270.954C119.94 270.004 119.502 269.048 118.996 268.225C118.49 267.402 117.891 266.601 117.697 265.653C117.502 264.706 117.875 263.547 118.786 263.237C119.563 262.972 120.391 263.401 121.21 263.452C121.675 263.482 122.139 263.388 122.557 263.179C122.974 262.971 123.33 262.656 123.588 262.266C123.846 261.876 123.998 261.424 124.027 260.956C124.057 260.488 123.965 260.021 123.758 259.601L124.072 259.297Z" fill="#2F2E41"/>
<path d="M349.17 391.5H45.8304C45.7428 391.5 45.6588 391.46 45.5968 391.39C45.5348 391.319 45.5 391.223 45.5 391.123C45.5 391.023 45.5348 390.927 45.5968 390.856C45.6588 390.785 45.7428 390.745 45.8304 390.745H349.17C349.257 390.745 349.341 390.785 349.403 390.856C349.465 390.927 349.5 391.023 349.5 391.123C349.5 391.223 349.465 391.319 349.403 391.39C349.341 391.46 349.257 391.5 349.17 391.5Z" fill="#CCCCCC"/>
</g>
<defs>
<linearGradient id="paint0_linear_34_3190" x1="256" y1="-230.143" x2="256" y2="341.143" gradientUnits="userSpaceOnUse">
<stop stop-color="#FF6868"/>
<stop offset="1" stop-color="#FF9D23" stop-opacity="0.1"/>
</linearGradient>
<clipPath id="clip0_34_3190">
<rect width="345" height="275" fill="white" transform="translate(24.5 116.5)"/>
</clipPath>
</defs>
</svg>
