<svg width="394" height="473" viewBox="0 0 394 473" fill="none" xmlns="http://www.w3.org/2000/svg">
<circle cx="96.0002" cy="95.5" r="325.77" fill="url(#paint0_linear_34_2793)" fill-opacity="0.6"/>
<g clip-path="url(#clip0_34_2793)">
<path d="M316.258 284.835H77.5234C75.3962 284.832 73.3568 283.985 71.8527 282.478C70.3485 280.971 69.5024 278.927 69.5 276.796V183.039C69.5024 180.908 70.3485 178.864 71.8527 177.357C73.3568 175.85 75.3962 175.002 77.5234 175H316.258C318.385 175.002 320.425 175.85 321.929 177.357C323.433 178.864 324.279 180.908 324.282 183.039V276.796C324.279 278.927 323.433 280.971 321.929 282.478C320.425 283.985 318.385 284.832 316.258 284.835Z" fill="#FFC182"/>
<path d="M260.58 279.708H115.419C104.602 279.696 94.231 275.385 86.5821 267.721C78.9332 260.057 74.6306 249.667 74.6184 238.829V221.01C74.6306 210.172 78.9331 199.782 86.5821 192.118C94.231 184.454 104.602 180.143 115.419 180.131H278.364C289.181 180.143 299.552 184.454 307.201 192.118C314.85 199.782 319.152 210.172 319.164 221.01C319.147 236.572 312.969 251.492 301.986 262.496C291.003 273.5 276.112 279.69 260.58 279.708Z" fill="white"/>
<path d="M223.134 206.971H127.181C126.632 206.971 126.106 206.752 125.718 206.364C125.33 205.975 125.112 205.448 125.112 204.898C125.112 204.348 125.33 203.821 125.718 203.432C126.106 203.043 126.632 202.824 127.181 202.824H223.134C223.683 202.824 224.209 203.043 224.597 203.432C224.985 203.821 225.203 204.348 225.203 204.898C225.203 205.448 224.985 205.975 224.597 206.364C224.209 206.752 223.683 206.971 223.134 206.971Z" fill="#E6E6E6"/>
<path d="M271.707 229.091H127.181C126.632 229.091 126.106 228.872 125.718 228.484C125.33 228.095 125.112 227.567 125.112 227.018C125.112 226.468 125.33 225.94 125.718 225.552C126.106 225.163 126.632 224.944 127.181 224.944H271.707C272.256 224.944 272.783 225.163 273.171 225.552C273.559 225.94 273.777 226.468 273.777 227.018C273.777 227.567 273.559 228.095 273.171 228.484C272.783 228.872 272.256 229.091 271.707 229.091Z" fill="#E6E6E6"/>
<path d="M271.707 251.211H127.181C126.632 251.211 126.106 250.992 125.718 250.603C125.33 250.215 125.112 249.687 125.112 249.137C125.112 248.588 125.33 248.06 125.718 247.671C126.106 247.283 126.632 247.064 127.181 247.064H271.707C272.256 247.064 272.783 247.283 273.171 247.671C273.559 248.06 273.777 248.588 273.777 249.137C273.777 249.687 273.559 250.215 273.171 250.603C272.783 250.992 272.256 251.211 271.707 251.211Z" fill="#E6E6E6"/>
<path d="M271.707 251.211H127.181C126.632 251.211 126.106 250.992 125.718 250.603C125.33 250.215 125.112 249.687 125.112 249.137C125.112 248.588 125.33 248.06 125.718 247.671C126.106 247.283 126.632 247.064 127.181 247.064H271.707C272.256 247.064 272.783 247.283 273.171 247.671C273.559 248.06 273.777 248.588 273.777 249.137C273.777 249.687 273.559 250.215 273.171 250.603C272.783 250.992 272.256 251.211 271.707 251.211Z" fill="#E6E6E6"/>
<path d="M213.009 231.63C213.032 232.254 213.191 232.866 213.476 233.422C213.76 233.978 214.163 234.465 214.656 234.848C215.148 235.231 215.719 235.502 216.327 235.64C216.935 235.779 217.566 235.782 218.176 235.649L226.067 248.62L229.426 241.479L221.417 230.257C221.127 229.246 220.477 228.376 219.59 227.813C218.703 227.25 217.641 227.032 216.605 227.201C215.568 227.371 214.63 227.915 213.967 228.731C213.304 229.547 212.963 230.578 213.009 231.63Z" fill="#FFB6B6"/>
<path d="M272.227 268.802L245.033 254.023L236.455 245.96C236.455 245.96 232.726 244.959 234.098 243.745C235.471 242.53 231.56 241.358 231.56 241.358L226.955 237.03L220.412 241.668L222.305 244.609C222.305 244.609 222.175 249.478 224.837 248.542C227.499 247.605 226.834 251.643 226.834 251.643L242.724 276.322L272.227 268.802Z" fill="#3F3D56"/>
<path d="M191.951 254.878C206.622 254.878 218.514 242.962 218.514 228.264C218.514 213.565 206.622 201.65 191.951 201.65C177.281 201.65 165.389 213.565 165.389 228.264C165.389 242.962 177.281 254.878 191.951 254.878Z" fill="#16C47F"/>
<path d="M272.312 462.653H266.788L264.16 441.308H272.312V462.653Z" fill="#FFB6B6"/>
<path d="M275.227 472.241H271.266L270.559 468.494L268.748 472.241H258.243C257.74 472.241 257.249 472.079 256.844 471.78C256.438 471.481 256.138 471.06 255.989 470.579C255.839 470.097 255.847 469.58 256.011 469.103C256.175 468.626 256.487 468.214 256.901 467.928L265.29 462.123V458.335L274.114 458.863L275.227 472.241Z" fill="#2F2E41"/>
<path d="M228.138 462.653H222.615L219.986 441.308H228.138V462.653Z" fill="#FFB6B6"/>
<path d="M231.053 472.241H227.092L226.385 468.494L224.575 472.241H214.069C213.566 472.241 213.076 472.079 212.67 471.78C212.264 471.481 211.965 471.06 211.815 470.579C211.665 470.097 211.673 469.58 211.837 469.103C212.001 468.626 212.313 468.214 212.728 467.928L221.117 462.123V458.335L229.941 458.863L231.053 472.241Z" fill="#2F2E41"/>
<path d="M266.451 301.227H238.575V333.025H266.451V301.227Z" fill="#FFB6B6"/>
<path d="M239.218 316.911L234.5 322.497L226.352 339.685L205.82 388.632L201.477 398.983L204.984 417.282C204.984 417.282 205.552 430.174 205.552 432.285C205.552 436.582 209.139 438.963 209.139 438.963L211.77 452.695L237.288 451.621C237.288 451.621 236.398 436.484 231.053 432.665C225.708 428.847 223.252 408.947 223.252 408.947L220.348 400.118L248.653 366.5L248.836 378.252L248.924 383.939C248.924 383.939 244.779 420.934 249.611 428.113C254.443 435.292 249.709 434.448 249.709 434.448L249.94 449.258L280.175 449.473L273.505 406.835C273.505 406.835 270.118 404.155 271.93 401.462C273.742 398.768 270.174 395.469 270.174 395.469L271.774 362.183C271.774 362.183 270.002 356.434 272.086 355.686C274.171 354.939 272.36 349.995 272.36 349.995L272.67 343.552L266.451 323.571L239.218 316.911Z" fill="#2F2E41"/>
<path d="M266.88 301.227L269.882 292.203L272.027 289.195L272.884 280.601C272.884 257.398 267.719 261.262 267.719 261.262L264.736 253.101L251.012 252.671L242.22 261.05L234.929 263.628L232.074 278.492L237.288 294.352L238.575 302.946C236.12 307.485 236.328 305.338 238.36 308.747L262.591 315.407C271.169 318.415 271.169 310.68 269.449 308.747C267.729 306.813 266.88 301.227 266.88 301.227Z" fill="#3F3D56"/>
<path d="M256.101 249.787C263.127 249.787 268.823 244.08 268.823 237.04C268.823 230 263.127 224.293 256.101 224.293C249.075 224.293 243.378 230 243.378 237.04C243.378 244.08 249.075 249.787 256.101 249.787Z" fill="#FFB6B6"/>
<path d="M273.086 254.055C273.206 254.257 273.278 254.485 273.298 254.719C273.319 254.954 273.286 255.19 273.202 255.41C273.118 255.63 272.986 255.829 272.815 255.991C272.644 256.152 272.439 256.274 272.215 256.345C270.508 256.912 269.458 258.567 268.231 259.89C267.009 261.209 265.04 262.305 263.479 261.407C261.922 260.513 261.815 258.231 260.511 256.994C259.242 255.791 257.132 255.937 255.639 256.852L255.595 256.88C255.337 257.048 255.036 257.137 254.728 257.135C254.421 257.134 254.12 257.042 253.864 256.872C253.608 256.701 253.408 256.459 253.288 256.175C253.167 255.892 253.133 255.579 253.188 255.276C253.711 252.489 254.234 249.703 254.756 246.917C253.383 250.231 251.39 253.25 248.885 255.812C248.194 256.61 247.32 257.227 246.337 257.608C245.445 257.892 244.579 256.968 243.712 257.136C245.865 255.249 253.105 243.158 251.81 235.075C250.287 235.247 248.765 235.419 247.242 235.591C247.077 234.869 246.725 234.203 246.221 233.661C246.283 234.364 246.194 235.072 245.96 235.737C245.325 235.81 244.686 235.879 244.051 235.952C243.168 236.05 242.207 236.136 241.448 235.672C240.183 234.899 240.144 233.068 240.505 231.625C241.56 227.426 244.759 223.916 248.674 222.077C252.59 220.242 253.748 224.328 257.874 223.022C266.022 220.444 272.267 224.853 274.467 233.034C276.315 239.896 274.973 247.18 273.086 254.055Z" fill="#2F2E41"/>
<path d="M308.308 472.518H292.729L292.662 472.396C292.463 472.034 292.271 471.651 292.091 471.257C290.486 467.815 289.808 463.878 289.21 460.405L288.759 457.787C288.704 457.47 288.746 457.143 288.877 456.85C289.009 456.556 289.225 456.309 289.497 456.139C289.77 455.969 290.087 455.885 290.408 455.897C290.729 455.908 291.039 456.016 291.299 456.205C293.666 457.931 296.035 459.656 298.404 461.378C299.301 462.032 300.326 462.789 301.307 463.607C301.402 463.147 301.501 462.685 301.6 462.229C301.668 461.914 301.828 461.627 302.06 461.405C302.292 461.182 302.586 461.034 302.902 460.979C303.219 460.924 303.545 460.965 303.838 461.097C304.131 461.229 304.378 461.445 304.548 461.718L306.371 464.652C307.7 466.795 308.873 468.906 308.634 471.184C308.636 471.211 308.633 471.239 308.628 471.266C308.58 471.64 308.492 472.008 308.364 472.363L308.308 472.518Z" fill="#FF6868"/>
<path d="M331.834 472.855L154.02 473C153.842 472.999 153.672 472.94 153.547 472.835C153.422 472.73 153.352 472.588 153.352 472.44C153.352 472.292 153.422 472.15 153.547 472.045C153.672 471.94 153.842 471.881 154.02 471.88L331.834 471.735C332.011 471.736 332.181 471.795 332.306 471.9C332.431 472.005 332.502 472.147 332.502 472.295C332.502 472.443 332.431 472.585 332.306 472.69C332.181 472.795 332.011 472.855 331.834 472.855Z" fill="#DFDFDF"/>
<path d="M189.537 264.084L173.253 250.307C172.697 249.835 172.35 249.161 172.289 248.433C172.227 247.705 172.457 246.982 172.927 246.424L175.924 242.868C176.395 242.31 177.067 241.962 177.794 241.901C178.521 241.84 179.242 242.07 179.8 242.54L196.083 256.318C196.639 256.79 196.986 257.464 197.048 258.192C197.109 258.92 196.88 259.643 196.41 260.201L193.413 263.757C192.942 264.315 192.269 264.662 191.542 264.724C190.816 264.785 190.094 264.555 189.537 264.084Z" fill="#3F3D56"/>
<path d="M174.108 246.71C173.855 247.011 173.731 247.401 173.764 247.793C173.797 248.185 173.984 248.548 174.284 248.803L190.567 262.58C190.868 262.834 191.257 262.958 191.648 262.925C192.04 262.892 192.402 262.704 192.656 262.404L195.653 258.848C195.906 258.547 196.03 258.158 195.997 257.765C195.964 257.373 195.777 257.01 195.477 256.756L179.193 242.978C178.893 242.724 178.504 242.6 178.113 242.633C177.721 242.667 177.359 242.854 177.105 243.154L174.108 246.71Z" fill="white"/>
<path d="M183.667 252.066C183.611 252.145 183.537 252.21 183.451 252.256C183.365 252.301 183.269 252.326 183.172 252.328L180.614 252.387C180.532 252.389 180.45 252.375 180.373 252.345C180.297 252.315 180.227 252.271 180.167 252.214C180.108 252.157 180.06 252.089 180.027 252.014C179.994 251.938 179.975 251.857 179.974 251.775C179.972 251.692 179.986 251.61 180.016 251.534C180.045 251.457 180.09 251.387 180.147 251.327C180.204 251.267 180.271 251.22 180.347 251.186C180.422 251.153 180.503 251.135 180.585 251.133L182.259 251.095L180.611 246.737C180.552 246.581 180.558 246.409 180.626 246.258C180.694 246.106 180.82 245.988 180.975 245.929C181.13 245.871 181.302 245.876 181.453 245.944C181.604 246.012 181.722 246.137 181.781 246.292L183.743 251.479C183.779 251.573 183.791 251.674 183.78 251.774C183.768 251.873 183.733 251.969 183.677 252.052L183.667 252.066Z" fill="#16C47F"/>
<path d="M183.995 253.161C184.613 253.252 185.202 253.477 185.723 253.821C186.244 254.165 186.683 254.619 187.01 255.152C187.336 255.684 187.543 256.281 187.614 256.902C187.685 257.523 187.62 258.152 187.422 258.745L199.433 268.015L191.983 270.583L181.72 261.387C180.748 260.988 179.956 260.246 179.493 259.301C179.031 258.357 178.931 257.275 179.211 256.261C179.492 255.247 180.134 254.372 181.015 253.8C181.897 253.229 182.958 253.002 183.995 253.161Z" fill="#FFB6B6"/>
<path d="M246.527 257.745L215.775 276.688C215.775 276.688 203.376 272.092 205.799 269.964C208.223 267.836 200.509 266.398 200.509 266.398L191.987 260.654L187.042 266.412C187.042 266.412 187.943 275.764 189.476 274.145C191.009 272.525 193.301 276.949 193.301 276.949C193.301 276.949 193.978 281.889 198.342 280.646C202.706 279.403 214.416 292.432 214.416 292.432L252.262 278.29L246.527 257.745Z" fill="#3F3D56"/>
<path d="M191.017 238.94C190.661 238.94 190.309 238.857 189.99 238.697C189.672 238.537 189.394 238.305 189.18 238.019L183.548 230.495C183.367 230.254 183.236 229.978 183.161 229.686C183.086 229.393 183.07 229.088 183.112 228.789C183.155 228.49 183.256 228.203 183.41 227.943C183.563 227.683 183.766 227.455 184.008 227.274C184.495 226.908 185.107 226.751 185.71 226.837C186.009 226.88 186.296 226.981 186.555 227.135C186.815 227.289 187.042 227.493 187.223 227.734L190.907 232.656L200.371 218.434C200.709 217.926 201.234 217.574 201.831 217.454C202.429 217.334 203.049 217.457 203.556 217.796C204.062 218.134 204.414 218.66 204.534 219.259C204.653 219.857 204.53 220.479 204.193 220.986L192.928 237.915C192.725 238.221 192.45 238.474 192.129 238.652C191.808 238.83 191.448 238.929 191.081 238.939C191.06 238.939 191.039 238.94 191.017 238.94Z" fill="white"/>
</g>
<defs>
<linearGradient id="paint0_linear_34_2793" x1="96.0002" y1="-230.27" x2="96.0002" y2="421.27" gradientUnits="userSpaceOnUse">
<stop stop-color="#FF6868"/>
<stop offset="1" stop-color="#FF9D23" stop-opacity="0.1"/>
</linearGradient>
<clipPath id="clip0_34_2793">
<rect width="255" height="298" fill="white" transform="translate(69.5 175)"/>
</clipPath>
</defs>
</svg>
