<svg width="394" height="469" viewBox="0 0 394 469" fill="none" xmlns="http://www.w3.org/2000/svg">
<circle cx="96.0002" cy="95.5" r="325.77" fill="url(#paint0_linear_34_3029)" fill-opacity="0.6"/>
<g clip-path="url(#clip0_34_3029)">
<path d="M221.707 253.839H220.168V211.503C220.168 208.285 219.536 205.099 218.308 202.126C217.08 199.153 215.28 196.452 213.011 194.177C210.742 191.901 208.048 190.097 205.083 188.865C202.119 187.634 198.941 187 195.732 187H106.284C103.075 187 99.8978 187.634 96.9332 188.866C93.9685 190.097 91.2747 191.902 89.0056 194.177C86.7366 196.453 84.9367 199.154 83.7087 202.127C82.4807 205.099 81.8487 208.286 81.8488 211.504V443.761C81.8488 450.259 84.4232 456.492 89.0056 461.087C93.5881 465.682 99.8033 468.264 106.284 468.264H195.732C202.213 468.264 208.428 465.682 213.01 461.087C217.593 456.492 220.167 450.259 220.167 443.761V283.975H221.706L221.707 253.839Z" fill="#3F3D56"/>
<path d="M215.185 209.862V445.401C215.184 450.328 213.232 455.053 209.758 458.537C206.284 462.022 201.573 463.98 196.659 463.982H105.375C100.46 463.983 95.7451 462.025 92.2686 458.541C88.7921 455.056 86.8383 450.33 86.8368 445.401V209.862C86.8383 204.933 88.792 200.206 92.2684 196.722C95.7447 193.237 100.459 191.28 105.374 191.281H116.447C115.904 192.622 115.697 194.076 115.845 195.516C115.993 196.955 116.491 198.337 117.296 199.538C118.101 200.739 119.188 201.724 120.462 202.405C121.735 203.087 123.156 203.444 124.599 203.446H176.642C178.085 203.444 179.506 203.087 180.78 202.405C182.053 201.724 183.14 200.739 183.945 199.538C184.75 198.337 185.249 196.955 185.397 195.516C185.545 194.076 185.338 192.622 184.794 191.281H196.655C201.569 191.282 206.281 193.239 209.756 196.723C213.23 200.206 215.183 204.931 215.185 209.858V209.862Z" fill="white"/>
<path d="M151.99 304.092C141.597 304.096 131.628 299.96 124.276 292.593C116.924 285.227 112.791 275.234 112.786 264.812V264.777C112.786 264.695 112.786 264.608 112.791 264.526C112.909 242.997 130.496 225.466 151.99 225.466C157.138 225.466 162.236 226.482 166.993 228.457C171.749 230.433 176.071 233.328 179.712 236.979C183.353 240.629 186.24 244.963 188.211 249.732C190.181 254.501 191.196 259.613 191.196 264.776C191.196 269.939 190.183 275.051 188.213 279.82C186.243 284.59 183.355 288.924 179.715 292.575C176.075 296.225 171.753 299.121 166.997 301.097C162.24 303.073 157.143 304.09 151.994 304.091H151.99V304.092ZM151.99 226.293C141.857 226.316 132.143 230.347 124.958 237.511C117.773 244.675 113.697 254.392 113.616 264.553C113.612 264.641 113.612 264.711 113.612 264.778C113.611 272.391 115.861 279.833 120.078 286.163C124.295 292.493 130.29 297.427 137.303 300.341C144.317 303.255 152.035 304.018 159.481 302.533C166.927 301.049 173.766 297.383 179.135 292.001C184.503 286.618 188.159 279.76 189.641 272.294C191.122 264.827 190.363 257.088 187.458 250.055C184.553 243.021 179.633 237.01 173.321 232.78C167.009 228.551 159.587 226.293 151.996 226.293H151.99Z" fill="#F93827"/>
<path d="M134.844 264.443C139.491 264.443 143.259 260.666 143.259 256.005C143.259 251.345 139.491 247.567 134.844 247.567C130.197 247.567 126.429 251.345 126.429 256.005C126.429 260.666 130.197 264.443 134.844 264.443Z" fill="#3F3D56"/>
<path d="M161.232 282.007H119.95C119.899 282.008 119.847 282.004 119.796 281.995L139.321 248.085C139.44 247.874 139.613 247.698 139.822 247.576C140.031 247.453 140.268 247.389 140.51 247.389C140.752 247.389 140.99 247.453 141.199 247.576C141.408 247.698 141.581 247.874 141.7 248.085L154.803 270.84L155.43 271.929L161.232 282.007Z" fill="#16C47F"/>
<path d="M184.215 282.008H148.511L155.429 271.93L155.927 271.204L164.942 258.072C165.102 257.871 165.302 257.706 165.529 257.587C165.756 257.469 166.006 257.4 166.261 257.384C166.517 257.369 166.773 257.408 167.012 257.498C167.252 257.589 167.47 257.729 167.652 257.909C167.699 257.961 167.742 258.015 167.782 258.072L184.215 282.008Z" fill="#16C47F"/>
<path d="M192.529 345.425H111.413C111.015 345.424 110.633 345.266 110.351 344.983C110.07 344.701 109.911 344.318 109.911 343.919V323.742C109.911 323.343 110.07 322.96 110.351 322.677C110.633 322.395 111.015 322.236 111.413 322.236H192.529C192.928 322.236 193.309 322.395 193.591 322.677C193.872 322.96 194.031 323.343 194.031 323.742V343.919C194.031 344.318 193.872 344.701 193.591 344.984C193.309 345.266 192.928 345.425 192.529 345.425V345.425ZM111.413 322.838C111.174 322.838 110.945 322.933 110.776 323.103C110.607 323.272 110.512 323.502 110.511 323.742V343.919C110.512 344.159 110.607 344.388 110.776 344.558C110.945 344.727 111.174 344.823 111.413 344.823H192.529C192.768 344.823 192.997 344.727 193.166 344.558C193.335 344.388 193.431 344.159 193.431 343.919V323.742C193.431 323.502 193.335 323.272 193.166 323.103C192.997 322.933 192.768 322.838 192.529 322.838H111.413Z" fill="#FF9D23"/>
<path d="M121.928 340.157C125.412 340.157 128.237 337.324 128.237 333.83C128.237 330.336 125.412 327.504 121.928 327.504C118.443 327.504 115.619 330.336 115.619 333.83C115.619 337.324 118.443 340.157 121.928 340.157Z" fill="#16C47F"/>
<path d="M136.499 329.612C136.22 329.612 135.952 329.723 135.755 329.921C135.558 330.119 135.447 330.387 135.447 330.667C135.447 330.946 135.558 331.215 135.755 331.412C135.952 331.61 136.22 331.721 136.499 331.721H186.07C186.21 331.727 186.349 331.704 186.48 331.654C186.611 331.605 186.731 331.53 186.833 331.433C186.935 331.337 187.016 331.221 187.073 331.092C187.129 330.964 187.159 330.825 187.162 330.685C187.164 330.544 187.138 330.405 187.086 330.274C187.034 330.144 186.956 330.025 186.858 329.926C186.759 329.826 186.642 329.747 186.512 329.693C186.383 329.639 186.244 329.612 186.104 329.613H136.499V329.612Z" fill="#E6E6E6"/>
<path d="M136.499 335.939C136.22 335.939 135.952 336.05 135.755 336.248C135.558 336.445 135.447 336.714 135.447 336.993C135.447 337.273 135.558 337.541 135.755 337.739C135.952 337.937 136.22 338.048 136.499 338.048H186.07C186.21 338.053 186.349 338.03 186.48 337.981C186.611 337.931 186.731 337.856 186.833 337.76C186.935 337.663 187.016 337.547 187.073 337.419C187.129 337.29 187.159 337.151 187.162 337.011C187.164 336.871 187.138 336.731 187.086 336.601C187.034 336.47 186.956 336.352 186.858 336.252C186.759 336.152 186.642 336.073 186.512 336.019C186.383 335.966 186.244 335.938 186.104 335.939H136.499V335.939Z" fill="#E6E6E6"/>
<path d="M192.529 379.166H111.413C111.015 379.166 110.633 379.007 110.351 378.725C110.07 378.442 109.911 378.059 109.911 377.66V357.483C109.911 357.084 110.07 356.701 110.351 356.419C110.633 356.136 111.015 355.978 111.413 355.977H192.529C192.928 355.978 193.309 356.136 193.591 356.419C193.872 356.701 194.031 357.084 194.031 357.483V377.66C194.031 378.06 193.872 378.442 193.591 378.725C193.309 379.007 192.927 379.166 192.529 379.166ZM111.413 356.579C111.174 356.58 110.945 356.675 110.776 356.844C110.607 357.014 110.512 357.244 110.511 357.483V377.66C110.512 377.9 110.607 378.13 110.776 378.299C110.945 378.469 111.174 378.564 111.413 378.564H192.529C192.768 378.564 192.997 378.469 193.166 378.299C193.335 378.13 193.431 377.9 193.431 377.66V357.483C193.431 357.244 193.335 357.014 193.166 356.844C192.997 356.675 192.768 356.58 192.529 356.579H111.413Z" fill="#FF9D23"/>
<path d="M121.928 373.898C125.412 373.898 128.237 371.065 128.237 367.571C128.237 364.077 125.412 361.245 121.928 361.245C118.443 361.245 115.619 364.077 115.619 367.571C115.619 371.065 118.443 373.898 121.928 373.898Z" fill="#16C47F"/>
<path d="M136.499 363.353C136.22 363.353 135.952 363.464 135.755 363.661C135.558 363.859 135.447 364.127 135.447 364.407C135.447 364.687 135.558 364.955 135.755 365.153C135.952 365.35 136.22 365.461 136.499 365.461H186.07C186.345 365.46 186.608 365.35 186.803 365.157C186.999 364.963 187.111 364.7 187.115 364.424C187.12 364.148 187.016 363.882 186.827 363.682C186.638 363.482 186.379 363.364 186.104 363.353H136.499V363.353Z" fill="#E6E6E6"/>
<path d="M136.499 369.68C136.22 369.68 135.952 369.791 135.755 369.989C135.558 370.187 135.447 370.455 135.447 370.735C135.447 371.014 135.558 371.283 135.755 371.48C135.952 371.678 136.22 371.789 136.499 371.789H186.07C186.345 371.788 186.608 371.678 186.803 371.484C186.999 371.29 187.111 371.027 187.115 370.752C187.12 370.476 187.016 370.21 186.827 370.009C186.638 369.809 186.379 369.691 186.104 369.681L136.499 369.68Z" fill="#E6E6E6"/>
<path d="M192.529 412.907H111.413C111.015 412.907 110.633 412.748 110.351 412.466C110.07 412.183 109.911 411.8 109.911 411.401V391.224C109.911 390.825 110.07 390.442 110.351 390.16C110.633 389.877 111.015 389.719 111.413 389.718H192.529C192.928 389.719 193.309 389.877 193.591 390.16C193.872 390.442 194.031 390.825 194.031 391.224V411.401C194.031 411.801 193.872 412.184 193.591 412.466C193.309 412.748 192.928 412.907 192.529 412.908V412.907ZM111.413 390.32C111.174 390.321 110.945 390.416 110.776 390.585C110.607 390.755 110.512 390.985 110.511 391.224V411.401C110.512 411.641 110.607 411.871 110.776 412.04C110.945 412.21 111.174 412.305 111.413 412.305H192.529C192.768 412.305 192.997 412.21 193.166 412.04C193.335 411.871 193.431 411.641 193.431 411.401V391.224C193.431 390.985 193.335 390.755 193.166 390.585C192.997 390.416 192.768 390.321 192.529 390.32H111.413Z" fill="#FF9D23"/>
<path d="M121.928 407.639C125.412 407.639 128.237 404.807 128.237 401.313C128.237 397.819 125.412 394.986 121.928 394.986C118.443 394.986 115.619 397.819 115.619 401.313C115.619 404.807 118.443 407.639 121.928 407.639Z" fill="#16C47F"/>
<path d="M136.499 397.095C136.22 397.095 135.952 397.206 135.755 397.404C135.558 397.602 135.447 397.87 135.447 398.149C135.447 398.429 135.558 398.697 135.755 398.895C135.952 399.093 136.22 399.204 136.499 399.204H186.07C186.21 399.209 186.349 399.187 186.48 399.137C186.611 399.088 186.731 399.012 186.833 398.916C186.935 398.819 187.016 398.703 187.073 398.575C187.129 398.446 187.159 398.308 187.162 398.167C187.164 398.027 187.138 397.887 187.086 397.757C187.034 397.627 186.956 397.508 186.858 397.408C186.759 397.308 186.642 397.229 186.512 397.176C186.383 397.122 186.244 397.095 186.104 397.095H136.499V397.095Z" fill="#E6E6E6"/>
<path d="M136.499 403.421C136.22 403.421 135.952 403.532 135.755 403.73C135.558 403.928 135.447 404.196 135.447 404.476C135.447 404.756 135.558 405.024 135.755 405.221C135.952 405.419 136.22 405.53 136.499 405.53H186.07C186.21 405.536 186.349 405.513 186.48 405.464C186.611 405.414 186.731 405.339 186.833 405.242C186.935 405.146 187.016 405.03 187.073 404.901C187.129 404.773 187.159 404.634 187.162 404.494C187.164 404.353 187.138 404.214 187.086 404.083C187.034 403.953 186.956 403.835 186.858 403.735C186.759 403.635 186.642 403.556 186.512 403.502C186.383 403.448 186.244 403.421 186.104 403.422H136.499V403.421Z" fill="#E6E6E6"/>
<path d="M257.797 463.709H252.882L250.544 444.7H257.798L257.797 463.709Z" fill="#FEB8B8"/>
<path d="M259.051 468.486H243.204V468.285C243.204 466.644 243.854 465.071 245.01 463.911C246.167 462.752 247.736 462.1 249.371 462.1H259.051L259.051 468.486Z" fill="#2F2E41"/>
<path d="M318.851 460.482L314.066 461.611L307.445 443.644L314.505 441.977L318.851 460.482Z" fill="#FEB8B8"/>
<path d="M321.164 464.844L305.738 468.485L305.693 468.289C305.507 467.498 305.478 466.679 305.608 465.877C305.738 465.075 306.025 464.307 306.451 463.616C306.877 462.925 307.435 462.325 308.092 461.85C308.75 461.375 309.494 461.035 310.283 460.849L319.704 458.625L321.164 464.844Z" fill="#2F2E41"/>
<path d="M256.793 383.532C256.803 382.542 257.095 359.163 263.486 350.323L263.58 350.193L285.851 353.274L285.353 358.181C286.332 359.137 294.038 367.211 296.263 386.33L319.903 449.993L308.914 450.995L276.381 381.498L259.166 457.04H248.274L256.793 383.532Z" fill="#2F2E41"/>
<path d="M260.877 351.186L263.054 339.725C262.627 339.175 260.739 336.534 261.159 333.437C261.434 331.417 262.636 329.645 264.734 328.17L270.378 314.967L270.454 314.922C270.834 314.698 279.819 309.488 284.717 314.403C284.839 314.498 296.899 324.099 292.057 337.047L286.079 355.034L260.877 351.186Z" fill="#CCCCCC"/>
<path d="M253.302 366.692C253.889 366.624 254.455 366.429 254.958 366.119C255.462 365.809 255.891 365.392 256.217 364.897C256.542 364.403 256.755 363.843 256.842 363.257C256.928 362.671 256.885 362.073 256.716 361.505L268.369 353.086L261.393 350.426L251.397 358.828C250.467 359.178 249.697 359.858 249.233 360.738C248.769 361.618 248.642 362.639 248.876 363.606C249.111 364.574 249.691 365.422 250.506 365.991C251.321 366.559 252.316 366.809 253.302 366.692V366.692Z" fill="#FEB8B8"/>
<path d="M255.444 353.072L273.235 339.017L267.946 320.897C267.697 320.039 267.627 319.139 267.739 318.252C267.852 317.366 268.146 316.512 268.602 315.744C269.024 315.02 269.592 314.393 270.27 313.903C270.948 313.412 271.721 313.069 272.539 312.895C275.585 312.249 278.349 313.959 280.755 317.978L280.773 318.015C281.171 318.99 290.439 341.964 283.363 346.877C276.44 351.682 260.388 358.678 260.226 358.749L260.038 358.831L255.444 353.072Z" fill="#CCCCCC"/>
<path d="M279.088 309.625C285.041 309.625 289.866 304.787 289.866 298.818C289.866 292.849 285.041 288.011 279.088 288.011C273.136 288.011 268.311 292.849 268.311 298.818C268.311 304.787 273.136 309.625 279.088 309.625Z" fill="#FEB8B8"/>
<path d="M295.984 294.96C301.25 294.96 305.518 290.679 305.518 285.399C305.518 280.119 301.25 275.839 295.984 275.839C290.719 275.839 286.45 280.119 286.45 285.399C286.45 290.679 290.719 294.96 295.984 294.96Z" fill="#2F2E41"/>
<path d="M304.207 293.316C302.973 294.21 301.544 294.794 300.038 295.021C298.533 295.247 296.995 295.109 295.554 294.617C294.113 294.126 292.81 293.295 291.755 292.196C290.699 291.096 289.921 289.759 289.487 288.296C289.651 289.608 290.084 290.871 290.76 292.006C291.436 293.141 292.339 294.123 293.412 294.891C294.485 295.658 295.706 296.194 296.996 296.465C298.287 296.735 299.619 296.734 300.909 296.462C302.199 296.19 303.419 295.653 304.491 294.885C305.564 294.116 306.466 293.133 307.14 291.997C307.815 290.861 308.247 289.597 308.409 288.285C308.572 286.974 308.462 285.642 308.085 284.375C308.298 286.077 308.051 287.806 307.369 289.379C306.686 290.952 305.594 292.312 304.207 293.316Z" fill="#2F2E41"/>
<path d="M266.581 293.326C268.246 290.338 268.883 289.091 271.029 287.271C272.927 285.664 275.261 285.192 277.144 286.714C279.434 285.712 281.99 285.496 284.415 286.099C286.84 286.703 288.999 288.093 290.555 290.054C292.111 292.014 292.978 294.435 293.022 296.94C293.065 299.445 292.282 301.895 290.794 303.908C289.306 305.921 287.197 307.385 284.795 308.073C282.392 308.76 279.83 308.633 277.506 307.711C275.183 306.788 273.229 305.122 271.947 302.971C270.665 300.82 270.127 298.305 270.418 295.816C268.781 295.587 268.218 293.558 266.581 293.326Z" fill="#2F2E41"/>
<path d="M342.735 469H51.2649C50.8422 469 50.5 468.815 50.5 468.587C50.5 468.358 50.8426 468.173 51.2649 468.173H342.735C343.157 468.173 343.5 468.358 343.5 468.587C343.5 468.815 343.157 469 342.735 469Z" fill="#E6E6E6"/>
</g>
<defs>
<linearGradient id="paint0_linear_34_3029" x1="96.0002" y1="-230.27" x2="96.0002" y2="421.27" gradientUnits="userSpaceOnUse">
<stop stop-color="#FF6868"/>
<stop offset="1" stop-color="#FF9D23" stop-opacity="0.1"/>
</linearGradient>
<clipPath id="clip0_34_3029">
<rect width="293" height="282" fill="white" transform="translate(50.5 187)"/>
</clipPath>
</defs>
</svg>
