<svg width="394" height="469" viewBox="0 0 394 469" fill="none" xmlns="http://www.w3.org/2000/svg">
<circle cx="256" cy="55.5" r="285.643" fill="url(#paint0_linear_34_2908)" fill-opacity="0.6"/>
<g clip-path="url(#clip0_34_2908)">
<path d="M186.547 469C261.797 469 322.799 465.885 322.799 462.043C322.799 458.201 261.797 455.087 186.547 455.087C111.298 455.087 50.2962 458.201 50.2962 462.043C50.2962 465.885 111.298 469 186.547 469Z" fill="#F2F2F2"/>
<path d="M266.151 247.84H264.603V205.503C264.603 199.005 262.018 192.772 257.415 188.177C252.813 183.582 246.571 181 240.062 181H150.226C143.718 181 137.476 183.582 132.873 188.177C128.271 192.772 125.685 199.005 125.685 205.503V437.766C125.685 444.264 128.271 450.497 132.873 455.092C137.475 459.687 143.718 462.269 150.226 462.269H240.062C246.571 462.269 252.813 459.687 257.415 455.092C262.018 450.497 264.603 444.264 264.603 437.766V277.976H266.151L266.151 247.84Z" fill="#3F3D56"/>
<path d="M259.38 205.674V437.595C259.38 442.448 257.449 447.103 254.012 450.535C250.574 453.967 245.913 455.895 241.052 455.895H150.785C145.924 455.895 141.263 453.967 137.825 450.535C134.388 447.103 132.457 442.448 132.457 437.595V205.674C132.457 200.821 134.388 196.167 137.825 192.735C141.263 189.303 145.924 187.375 150.785 187.375H161.736C161.198 188.695 160.993 190.127 161.139 191.545C161.285 192.963 161.778 194.323 162.575 195.506C163.371 196.689 164.446 197.658 165.706 198.329C166.966 198.999 168.371 199.351 169.799 199.352H221.264C222.692 199.351 224.097 198.999 225.357 198.329C226.617 197.658 227.692 196.689 228.488 195.506C229.285 194.323 229.778 192.963 229.924 191.545C230.07 190.127 229.865 188.695 229.327 187.375H241.052C245.913 187.375 250.574 189.303 254.012 192.735C257.449 196.167 259.38 200.821 259.38 205.674Z" fill="white"/>
<path d="M230.3 305.677C229.7 305.99 229.09 306.287 228.469 306.566C227.904 306.821 227.33 307.061 226.747 307.285C226.534 307.366 226.317 307.448 226.101 307.529C224.387 308.149 222.626 308.634 220.836 308.978C219.95 309.152 219.052 309.288 218.142 309.388C217.391 309.473 216.633 309.533 215.866 309.569C215.32 309.596 214.775 309.608 214.225 309.608C212.048 309.609 209.876 309.406 207.738 309.001C207.18 308.901 206.634 308.781 206.089 308.649C203.449 308.018 200.893 307.076 198.475 305.844C198.258 305.735 198.041 305.619 197.824 305.507C197.503 305.337 197.19 305.16 196.876 304.974C197.027 304.765 197.19 304.561 197.356 304.36C199.167 302.118 201.431 300.284 204 298.974C206.569 297.665 209.386 296.912 212.266 296.762C215.147 296.613 218.026 297.071 220.717 298.107C223.408 299.143 225.851 300.733 227.885 302.775C228.591 303.482 229.245 304.239 229.844 305.04C230.002 305.248 230.153 305.461 230.3 305.677Z" fill="#16C47F"/>
<path d="M214.997 288.701C224.384 288.701 231.994 281.103 231.994 271.731C231.994 262.358 224.384 254.76 214.997 254.76C205.611 254.76 198.001 262.358 198.001 271.731C198.001 281.103 205.611 288.701 214.997 288.701Z" fill="#2F2E41"/>
<path d="M219.518 288.725C225.648 285.379 227.901 277.704 224.55 271.584C221.199 265.463 213.513 263.214 207.383 266.559C201.252 269.905 198.999 277.58 202.351 283.7C205.702 289.821 213.388 292.07 219.518 288.725Z" fill="#A0616A"/>
<path d="M226.743 269.698C223.852 271.687 220.421 272.746 216.91 272.732C218.162 273.599 219.588 274.184 221.089 274.448C216.421 275.448 211.597 275.475 206.918 274.528C205.878 274.361 204.874 274.017 203.951 273.51C203.492 273.254 203.091 272.904 202.775 272.482C202.46 272.061 202.237 271.578 202.12 271.065C201.809 269.292 203.193 267.681 204.632 266.595C206.834 264.958 209.373 263.83 212.065 263.293C214.757 262.756 217.536 262.823 220.199 263.489C221.938 263.938 223.68 264.696 224.809 266.09C225.939 267.485 226.273 269.634 225.197 271.07L226.743 269.698Z" fill="#2F2E41"/>
<path d="M214.225 240.042C206.627 240.041 199.238 242.52 193.183 247.102C187.127 251.683 182.738 258.116 180.685 265.419C178.631 272.722 179.025 280.496 181.807 287.555C184.589 294.614 189.606 300.571 196.094 304.518L196.319 304.649C196.505 304.762 196.69 304.87 196.876 304.974C197.19 305.16 197.503 305.337 197.824 305.507C198.041 305.62 198.258 305.735 198.475 305.844C200.893 307.076 203.449 308.018 206.089 308.65C206.634 308.781 207.18 308.901 207.738 309.001C209.876 309.406 212.048 309.609 214.225 309.608C214.775 309.608 215.32 309.596 215.866 309.569C216.633 309.535 217.391 309.474 218.142 309.388C219.052 309.287 219.95 309.151 220.836 308.978C222.626 308.634 224.387 308.149 226.101 307.529C226.317 307.448 226.534 307.366 226.747 307.285C227.331 307.061 227.905 306.821 228.469 306.566C229.089 306.288 229.699 305.992 230.3 305.678C236.326 302.527 241.307 297.698 244.638 291.776C244.653 291.745 244.673 291.714 244.688 291.683C246.465 288.499 247.726 285.054 248.423 281.476C249.402 276.44 249.254 271.249 247.989 266.276C246.724 261.303 244.373 256.671 241.105 252.712C237.837 248.752 233.732 245.563 229.085 243.373C224.438 241.182 219.364 240.045 214.225 240.042ZM244.053 291.231C244.022 291.285 243.995 291.339 243.964 291.389C240.7 297.224 235.789 301.971 229.844 305.04C229.251 305.349 228.649 305.639 228.036 305.909C227.529 306.137 227.01 306.354 226.488 306.555C226.267 306.64 226.042 306.725 225.818 306.802C224.337 307.342 222.82 307.776 221.278 308.101C220.133 308.344 218.977 308.526 217.813 308.646C217.097 308.723 216.369 308.777 215.638 308.804C215.169 308.823 214.697 308.835 214.225 308.835C212.118 308.838 210.016 308.642 207.947 308.251C206.687 308.02 205.443 307.715 204.219 307.339C202.355 306.764 200.543 306.031 198.804 305.148C198.603 305.044 198.401 304.939 198.204 304.831C197.921 304.68 197.635 304.526 197.356 304.36C197.147 304.244 196.938 304.12 196.733 303.996C196.613 303.927 196.493 303.853 196.373 303.78C190.685 300.292 186.147 295.214 183.323 289.174C180.5 283.135 179.514 276.401 180.488 269.808C181.463 263.214 184.354 257.051 188.805 252.084C193.255 247.116 199.068 243.563 205.523 241.864C211.978 240.165 218.79 240.396 225.115 242.527C231.44 244.659 236.998 248.598 241.101 253.855C245.204 259.112 247.671 265.456 248.196 272.101C248.721 278.745 247.28 285.397 244.053 291.231Z" fill="#FF9D23"/>
<path d="M206.39 254.995C206.207 253.075 203.852 251.893 202.009 252.473C200.167 253.053 198.958 254.905 198.592 256.798C198.416 257.596 198.4 258.42 198.543 259.224C198.687 260.028 198.989 260.796 199.43 261.483C200.361 262.822 202.073 263.657 203.669 263.317C205.491 262.929 206.753 261.153 207.114 259.328C207.475 257.503 207.117 255.622 206.759 253.797L206.39 254.995Z" fill="#2F2E41"/>
<path d="M232.318 257.738C232.135 255.818 229.779 254.636 227.937 255.215C226.094 255.795 224.885 257.648 224.519 259.541C224.343 260.339 224.327 261.163 224.471 261.967C224.615 262.771 224.916 263.539 225.358 264.226C226.289 265.564 228 266.4 229.596 266.06C231.418 265.672 232.68 263.896 233.041 262.071C233.403 260.246 233.044 258.365 232.686 256.54L232.318 257.738Z" fill="#2F2E41"/>
<path d="M154.01 288.726C153.769 288.726 153.53 288.675 153.31 288.578C153.09 288.48 152.892 288.338 152.73 288.16L133.522 267.239C133.304 267.002 133.04 266.813 132.745 266.683C132.45 266.554 132.131 266.487 131.809 266.486H30.3097C28.7694 266.485 27.2927 265.873 26.2035 264.785C25.1144 263.698 24.5017 262.223 24.5 260.686V224.139C24.5017 222.601 25.1144 221.127 26.2035 220.04C27.2927 218.952 28.7694 218.34 30.3097 218.339H161.81C163.35 218.34 164.827 218.952 165.916 220.04C167.005 221.127 167.618 222.601 167.619 224.139V260.686C167.618 262.223 167.005 263.698 165.916 264.785C164.827 265.873 163.35 266.485 161.81 266.486H158.082C157.465 266.487 156.875 266.732 156.439 267.167C156.003 267.602 155.758 268.192 155.757 268.807V286.984C155.759 287.335 155.653 287.678 155.455 287.968C155.256 288.258 154.974 288.48 154.646 288.606C154.444 288.685 154.228 288.726 154.01 288.726Z" fill="white"/>
<path d="M154.01 288.726C153.769 288.726 153.53 288.675 153.31 288.578C153.09 288.48 152.892 288.338 152.73 288.16L133.522 267.239C133.304 267.002 133.04 266.813 132.745 266.683C132.45 266.554 132.131 266.487 131.809 266.486H30.3097C28.7694 266.485 27.2927 265.873 26.2035 264.785C25.1144 263.698 24.5017 262.223 24.5 260.686V224.139C24.5017 222.601 25.1144 221.127 26.2035 220.04C27.2927 218.952 28.7694 218.34 30.3097 218.339H161.81C163.35 218.34 164.827 218.952 165.916 220.04C167.005 221.127 167.618 222.601 167.619 224.139V260.686C167.618 262.223 167.005 263.698 165.916 264.785C164.827 265.873 163.35 266.485 161.81 266.486H158.082C157.465 266.487 156.875 266.732 156.439 267.167C156.003 267.602 155.758 268.192 155.757 268.807V286.984C155.759 287.335 155.653 287.678 155.455 287.968C155.256 288.258 154.974 288.48 154.646 288.606C154.444 288.685 154.228 288.726 154.01 288.726ZM30.3097 219.112C28.9747 219.113 27.6947 219.643 26.7507 220.586C25.8067 221.528 25.2757 222.806 25.2742 224.139V260.686C25.2757 262.019 25.8067 263.296 26.7507 264.239C27.6947 265.182 28.9747 265.712 30.3097 265.713H131.809C132.238 265.714 132.663 265.803 133.056 265.976C133.449 266.149 133.802 266.401 134.093 266.716L153.3 287.638C153.432 287.781 153.605 287.882 153.795 287.926C153.985 287.97 154.184 287.956 154.366 287.886C154.548 287.815 154.704 287.691 154.814 287.53C154.924 287.369 154.983 287.179 154.983 286.984V268.807C154.984 267.987 155.311 267.2 155.892 266.62C156.473 266.04 157.26 265.714 158.082 265.713H161.81C163.145 265.712 164.425 265.182 165.369 264.239C166.313 263.296 166.844 262.019 166.845 260.686V224.139C166.844 222.806 166.313 221.528 165.369 220.586C164.425 219.643 163.145 219.113 161.81 219.112H30.3097Z" fill="#FF9D23"/>
<path d="M38.7506 234.46C41.5583 234.46 43.8344 232.188 43.8344 229.384C43.8344 226.581 41.5583 224.308 38.7506 224.308C35.943 224.308 33.6669 226.581 33.6669 229.384C33.6669 232.188 35.943 234.46 38.7506 234.46Z" fill="#16C47F"/>
<path d="M155.879 257.471H36.2408C35.8845 257.471 35.5316 257.402 35.2022 257.266C34.8729 257.13 34.5736 256.931 34.3215 256.679C34.0694 256.428 33.8694 256.129 33.7329 255.8C33.5965 255.472 33.5262 255.12 33.5262 254.764C33.5262 254.408 33.5965 254.056 33.7329 253.727C33.8694 253.398 34.0694 253.1 34.3215 252.848C34.5736 252.597 34.8729 252.398 35.2022 252.262C35.5316 252.126 35.8845 252.056 36.2408 252.057H155.879C156.597 252.057 157.286 252.343 157.794 252.851C158.301 253.358 158.587 254.046 158.587 254.764C158.587 255.481 158.301 256.169 157.794 256.677C157.286 257.184 156.597 257.47 155.879 257.471Z" fill="#E6E6E6"/>
<path d="M116.903 245.966H36.2408C35.8845 245.966 35.5316 245.896 35.2022 245.76C34.8729 245.625 34.5736 245.425 34.3215 245.174C34.0694 244.922 33.8694 244.624 33.7329 244.295C33.5965 243.966 33.5262 243.614 33.5262 243.258C33.5262 242.903 33.5965 242.55 33.7329 242.222C33.8694 241.893 34.0694 241.594 34.3215 241.343C34.5736 241.092 34.8729 240.892 35.2022 240.756C35.5316 240.621 35.8845 240.551 36.2408 240.551H116.903C117.622 240.551 118.312 240.836 118.82 241.344C119.329 241.852 119.614 242.54 119.614 243.258C119.614 243.976 119.329 244.665 118.82 245.173C118.312 245.68 117.622 245.966 116.903 245.966Z" fill="#E6E6E6"/>
<path d="M239.354 412.665C239.026 412.539 238.743 412.316 238.545 412.027C238.347 411.737 238.241 411.394 238.243 411.043V392.866C238.242 392.251 237.997 391.661 237.561 391.226C237.125 390.791 236.535 390.546 235.918 390.545H232.19C230.65 390.543 229.173 389.932 228.084 388.844C226.995 387.757 226.382 386.282 226.381 384.744V348.198C226.382 346.66 226.995 345.186 228.084 344.098C229.173 343.011 230.65 342.399 232.19 342.397H363.69C365.231 342.399 366.707 343.011 367.796 344.098C368.886 345.186 369.498 346.66 369.5 348.198V384.744C369.498 386.282 368.886 387.757 367.796 388.844C366.707 389.932 365.231 390.543 363.69 390.545H262.191C261.869 390.545 261.55 390.613 261.255 390.742C260.96 390.872 260.696 391.061 260.478 391.298L241.27 412.219C241.108 412.397 240.91 412.539 240.69 412.637C240.47 412.734 240.231 412.785 239.99 412.785C239.772 412.785 239.556 412.744 239.354 412.665Z" fill="white"/>
<path d="M239.354 412.665C239.026 412.539 238.743 412.316 238.545 412.027C238.347 411.737 238.241 411.394 238.243 411.043V392.866C238.242 392.251 237.997 391.661 237.561 391.226C237.125 390.791 236.535 390.546 235.918 390.545H232.19C230.65 390.543 229.173 389.932 228.084 388.844C226.995 387.757 226.382 386.282 226.381 384.744V348.198C226.382 346.66 226.995 345.186 228.084 344.098C229.173 343.011 230.65 342.399 232.19 342.397H363.69C365.231 342.399 366.707 343.011 367.796 344.098C368.886 345.186 369.498 346.66 369.5 348.198V384.744C369.498 386.282 368.886 387.757 367.796 388.844C366.707 389.932 365.231 390.543 363.69 390.545H262.191C261.869 390.545 261.55 390.613 261.255 390.742C260.96 390.872 260.696 391.061 260.478 391.298L241.27 412.219C241.108 412.397 240.91 412.539 240.69 412.637C240.47 412.734 240.231 412.785 239.99 412.785C239.772 412.785 239.556 412.744 239.354 412.665ZM232.19 343.17C230.855 343.172 229.575 343.702 228.631 344.645C227.687 345.587 227.156 346.865 227.155 348.198V384.744C227.156 386.077 227.687 387.355 228.631 388.298C229.575 389.24 230.855 389.771 232.19 389.772H235.918C236.74 389.773 237.527 390.099 238.108 390.679C238.689 391.259 239.016 392.046 239.017 392.866V411.043C239.017 411.238 239.076 411.428 239.186 411.589C239.296 411.75 239.452 411.874 239.634 411.944C239.816 412.015 240.015 412.029 240.205 411.985C240.395 411.941 240.568 411.84 240.7 411.697L259.907 390.775C260.198 390.46 260.551 390.207 260.944 390.035C261.337 389.862 261.762 389.773 262.191 389.772H363.69C365.025 389.771 366.305 389.24 367.249 388.298C368.193 387.355 368.724 386.077 368.726 384.744V348.198C368.724 346.865 368.193 345.587 367.249 344.645C366.305 343.702 365.025 343.172 363.69 343.17H232.19Z" fill="#F93827"/>
<path d="M198.366 423.982C192.974 427.429 186.726 429.309 180.323 429.411C173.921 429.513 167.616 427.832 162.117 424.558C163.084 422.759 164.31 421.112 165.755 419.669C167.985 417.431 170.699 415.734 173.689 414.708C176.678 413.682 179.863 413.353 183 413.747C186.136 414.142 189.14 415.249 191.781 416.984C194.422 418.718 196.63 421.034 198.235 423.754C198.277 423.827 198.324 423.904 198.366 423.982Z" fill="#16C47F"/>
<path d="M178.728 405.5C188.177 405.5 195.837 397.852 195.837 388.417C195.837 378.983 188.177 371.334 178.728 371.334C169.279 371.334 161.619 378.983 161.619 388.417C161.619 397.852 169.279 405.5 178.728 405.5Z" fill="#2F2E41"/>
<path d="M191.459 400.467C194.832 394.305 192.564 386.58 186.393 383.212C180.222 379.844 172.485 382.108 169.112 388.27C165.738 394.431 168.006 402.156 174.177 405.524C180.348 408.892 188.086 406.628 191.459 400.467Z" fill="#FFB8B8"/>
<path d="M166.905 386.371C169.815 388.373 173.269 389.439 176.803 389.425C175.542 390.298 174.107 390.887 172.596 391.153C177.295 392.159 182.151 392.187 186.861 391.233C187.908 391.065 188.918 390.719 189.848 390.209C190.311 389.951 190.714 389.598 191.031 389.174C191.349 388.75 191.574 388.264 191.691 387.748C192.004 385.963 190.611 384.341 189.163 383.248C186.946 381.6 184.39 380.464 181.68 379.923C178.97 379.383 176.173 379.45 173.492 380.121C171.742 380.573 169.988 381.336 168.851 382.74C167.714 384.143 167.377 386.307 168.461 387.753L166.905 386.371Z" fill="#2F2E41"/>
<path d="M179.775 429.802C171.396 429.799 163.298 426.78 156.968 421.299C150.638 415.817 146.499 408.241 145.311 399.959C144.124 391.677 145.966 383.246 150.501 376.211C155.036 369.176 161.96 364.009 170.001 361.658C178.043 359.308 186.664 359.931 194.283 363.414C201.902 366.896 208.007 373.005 211.48 380.619C214.953 388.233 215.56 396.841 213.19 404.866C210.819 412.891 205.631 419.793 198.576 424.307C192.965 427.899 186.44 429.806 179.775 429.802ZM179.775 361.009C173.037 361.009 166.45 363.003 160.848 366.74C155.245 370.477 150.878 375.789 148.3 382.005C145.721 388.22 145.046 395.059 146.36 401.657C147.675 408.255 150.919 414.316 155.684 419.073C160.448 423.83 166.518 427.07 173.127 428.382C179.735 429.694 186.585 429.021 192.81 426.446C199.035 423.871 204.355 419.511 208.098 413.917C211.841 408.323 213.839 401.747 213.838 395.019C213.828 386.002 210.236 377.358 203.85 370.982C197.464 364.606 188.806 361.019 179.775 361.009Z" fill="#F93827"/>
<path d="M242.74 358.133C245.548 358.133 247.824 355.86 247.824 353.057C247.824 350.253 245.548 347.981 242.74 347.981C239.933 347.981 237.657 350.253 237.657 353.057C237.657 355.86 239.933 358.133 242.74 358.133Z" fill="#16C47F"/>
<path d="M359.868 381.143H240.23C239.874 381.144 239.521 381.074 239.192 380.938C238.863 380.802 238.563 380.603 238.311 380.352C238.059 380.1 237.859 379.802 237.723 379.473C237.586 379.144 237.516 378.792 237.516 378.436C237.516 378.08 237.586 377.728 237.723 377.399C237.859 377.071 238.059 376.772 238.311 376.521C238.563 376.269 238.863 376.07 239.192 375.934C239.521 375.798 239.874 375.729 240.23 375.729H359.868C360.587 375.729 361.277 376.014 361.785 376.522C362.294 377.03 362.58 377.718 362.58 378.436C362.58 379.154 362.294 379.843 361.785 380.35C361.277 380.858 360.587 381.143 359.868 381.143Z" fill="#E6E6E6"/>
<path d="M320.893 369.638H240.23C239.874 369.638 239.521 369.569 239.192 369.433C238.863 369.297 238.563 369.098 238.311 368.846C238.059 368.595 237.859 368.296 237.723 367.967C237.586 367.639 237.516 367.287 237.516 366.931C237.516 366.575 237.586 366.223 237.723 365.894C237.859 365.565 238.059 365.267 238.311 365.015C238.563 364.764 238.863 364.565 239.192 364.429C239.521 364.293 239.874 364.223 240.23 364.224H320.893C321.611 364.224 322.3 364.51 322.808 365.018C323.316 365.525 323.601 366.213 323.601 366.931C323.601 367.648 323.316 368.336 322.808 368.844C322.3 369.351 321.611 369.637 320.893 369.638Z" fill="#E6E6E6"/>
<path d="M239.19 416.125C244.428 416.125 248.675 415.654 248.675 415.074C248.675 414.493 244.428 414.022 239.19 414.022C233.952 414.022 229.705 414.493 229.705 415.074C229.705 415.654 233.952 416.125 239.19 416.125Z" fill="#F2F2F2"/>
<path d="M154.42 292.452C159.658 292.452 163.905 291.982 163.905 291.401C163.905 290.821 159.658 290.35 154.42 290.35C149.182 290.35 144.935 290.821 144.935 291.401C144.935 291.982 149.182 292.452 154.42 292.452Z" fill="#F2F2F2"/>
</g>
<defs>
<linearGradient id="paint0_linear_34_2908" x1="256" y1="-230.143" x2="256" y2="341.143" gradientUnits="userSpaceOnUse">
<stop stop-color="#FF6868"/>
<stop offset="1" stop-color="#FF9D23" stop-opacity="0.1"/>
</linearGradient>
<clipPath id="clip0_34_2908">
<rect width="345" height="288" fill="white" transform="translate(24.5 181)"/>
</clipPath>
</defs>
</svg>
