<svg width="256" height="298" viewBox="0 0 256 298" fill="none" xmlns="http://www.w3.org/2000/svg">
<g clip-path="url(#clip0_34_2740)">
<path d="M247.058 109.835H8.3232C6.19602 109.832 4.15665 108.985 2.65251 107.478C1.14836 105.971 0.302261 103.927 0.299805 101.796V8.03883C0.302261 5.90756 1.14836 3.86428 2.65251 2.35723C4.15665 0.850194 6.19602 0.00246094 8.3232 0H247.058C249.185 0.00246094 251.225 0.850194 252.729 2.35723C254.233 3.86428 255.079 5.90756 255.081 8.03883V101.796C255.079 103.927 254.233 105.971 252.729 107.478C251.225 108.985 249.185 109.832 247.058 109.835Z" fill="#FFC182"/>
<path d="M191.38 104.708H46.2186C35.4014 104.696 25.0308 100.385 17.3819 92.7211C9.73293 85.0575 5.43042 74.6668 5.41821 63.8288V46.0104C5.43041 35.1723 9.73291 24.7817 17.3818 17.118C25.0307 9.45426 35.4014 5.1434 46.2186 5.1311H209.164C219.981 5.1434 230.352 9.45426 238.001 17.118C245.65 24.7817 249.952 35.1723 249.964 46.0104C249.947 61.5725 243.769 76.4922 232.786 87.4963C221.803 98.5003 206.912 104.69 191.38 104.708Z" fill="white"/>
<path d="M153.934 31.9709H57.9808C57.4321 31.9709 56.9057 31.7525 56.5177 31.3637C56.1296 30.9749 55.9116 30.4475 55.9116 29.8977C55.9116 29.3478 56.1296 28.8205 56.5177 28.4317C56.9057 28.0429 57.4321 27.8245 57.9808 27.8245H153.934C154.483 27.8245 155.009 28.0429 155.397 28.4317C155.785 28.8205 156.003 29.3478 156.003 29.8977C156.003 30.4475 155.785 30.9749 155.397 31.3637C155.009 31.7525 154.483 31.9709 153.934 31.9709Z" fill="#E6E6E6"/>
<path d="M202.507 54.0908H57.9808C57.4321 54.0908 56.9057 53.8723 56.5177 53.4835C56.1296 53.0947 55.9116 52.5674 55.9116 52.0175C55.9116 51.4677 56.1296 50.9404 56.5177 50.5516C56.9057 50.1628 57.4321 49.9443 57.9808 49.9443H202.507C203.056 49.9443 203.582 50.1628 203.97 50.5516C204.358 50.9404 204.576 51.4677 204.576 52.0175C204.576 52.5674 204.358 53.0947 203.97 53.4835C203.582 53.8723 203.056 54.0908 202.507 54.0908Z" fill="#E6E6E6"/>
<path d="M202.507 76.2106H57.9808C57.4321 76.2106 56.9057 75.9922 56.5177 75.6034C56.1296 75.2146 55.9116 74.6873 55.9116 74.1374C55.9116 73.5876 56.1296 73.0602 56.5177 72.6714C56.9057 72.2826 57.4321 72.0642 57.9808 72.0642H202.507C203.056 72.0642 203.582 72.2826 203.97 72.6714C204.358 73.0602 204.576 73.5876 204.576 74.1374C204.576 74.6873 204.358 75.2146 203.97 75.6034C203.582 75.9922 203.056 76.2106 202.507 76.2106Z" fill="#E6E6E6"/>
<path d="M202.507 76.2106H57.9808C57.4321 76.2106 56.9057 75.9922 56.5177 75.6034C56.1296 75.2146 55.9116 74.6873 55.9116 74.1374C55.9116 73.5876 56.1296 73.0602 56.5177 72.6714C56.9057 72.2826 57.4321 72.0642 57.9808 72.0642H202.507C203.056 72.0642 203.582 72.2826 203.97 72.6714C204.358 73.0602 204.576 73.5876 204.576 74.1374C204.576 74.6873 204.358 75.2146 203.97 75.6034C203.582 75.9922 203.056 76.2106 202.507 76.2106Z" fill="#E6E6E6"/>
<path d="M143.808 56.6295C143.831 57.254 143.991 57.8659 144.275 58.422C144.56 58.9781 144.963 59.4649 145.455 59.8482C145.948 60.2314 146.518 60.5018 147.127 60.6402C147.735 60.7787 148.366 60.7818 148.976 60.6495L156.867 73.6201L160.225 66.4795L152.217 55.2571C151.927 54.2459 151.277 53.3763 150.39 52.8131C149.503 52.2499 148.441 52.0323 147.404 52.2014C146.368 52.3706 145.429 52.9148 144.767 53.7309C144.104 54.5471 143.763 55.5784 143.808 56.6295Z" fill="#FFB6B6"/>
<path d="M203.027 93.8023L175.832 79.0229L167.255 70.9597C167.255 70.9597 163.526 69.9594 164.898 68.7446C166.271 67.5297 162.359 66.3581 162.359 66.3581L157.755 62.0295L151.211 66.6683L153.105 69.6094C153.105 69.6094 152.975 74.4783 155.637 73.5416C158.299 72.6049 157.634 76.643 157.634 76.643L173.524 101.322L203.027 93.8023Z" fill="#3F3D56"/>
<path d="M122.751 79.8778C137.422 79.8778 149.314 67.9623 149.314 53.2638C149.314 38.5654 137.422 26.6499 122.751 26.6499C108.081 26.6499 96.1885 38.5654 96.1885 53.2638C96.1885 67.9623 108.081 79.8778 122.751 79.8778Z" fill="#16C47F"/>
<path d="M203.112 287.653H197.588L194.96 266.308H203.112V287.653Z" fill="#FFB6B6"/>
<path d="M206.027 297.241H202.066L201.359 293.494L199.548 297.241H189.043C188.539 297.241 188.049 297.079 187.643 296.78C187.238 296.481 186.938 296.06 186.788 295.579C186.639 295.097 186.646 294.58 186.81 294.103C186.975 293.626 187.287 293.214 187.701 292.928L196.09 287.123V283.335L204.914 283.863L206.027 297.241Z" fill="#2F2E41"/>
<path d="M158.938 287.653H153.415L150.786 266.308H158.938V287.653Z" fill="#FFB6B6"/>
<path d="M161.853 297.241H157.892L157.185 293.494L155.374 297.241H144.869C144.366 297.241 143.875 297.079 143.47 296.78C143.064 296.481 142.765 296.06 142.615 295.579C142.465 295.097 142.473 294.58 142.637 294.103C142.801 293.626 143.113 293.214 143.528 292.928L151.917 287.123V283.335L160.74 283.863L161.853 297.241Z" fill="#2F2E41"/>
<path d="M197.251 126.227H169.374V158.025H197.251V126.227Z" fill="#FFB6B6"/>
<path d="M170.018 141.911L165.3 147.497L157.152 164.685L136.619 213.632L132.277 223.983L135.784 242.282C135.784 242.282 136.351 255.174 136.351 257.285C136.351 261.582 139.938 263.963 139.938 263.963L142.57 277.695L168.088 276.621C168.088 276.621 167.198 261.484 161.853 257.665C156.508 253.847 154.052 233.947 154.052 233.947L151.147 225.118L179.453 191.5L179.636 203.252L179.724 208.939C179.724 208.939 175.579 245.934 180.411 253.113C185.243 260.292 180.509 259.448 180.509 259.448L180.74 274.258L210.975 274.473L204.305 231.835C204.305 231.835 200.918 229.155 202.73 226.462C204.542 223.768 200.973 220.469 200.973 220.469L202.574 187.183C202.574 187.183 200.802 181.434 202.886 180.686C204.971 179.939 203.16 174.995 203.16 174.995L203.47 168.552L197.251 148.571L170.018 141.911Z" fill="#2F2E41"/>
<path d="M197.68 126.227L200.682 117.203L202.826 114.195L203.684 105.601C203.684 82.3978 198.518 86.2617 198.518 86.2617L195.536 78.1008L181.812 77.6711L173.02 86.0502L165.729 88.6284L162.874 103.492L168.088 119.352L169.374 127.946C166.92 132.485 167.128 130.338 169.16 133.747L193.391 140.407C201.969 143.415 201.969 135.68 200.249 133.747C198.529 131.813 197.68 126.227 197.68 126.227Z" fill="#3F3D56"/>
<path d="M186.901 74.7868C193.927 74.7868 199.623 69.0797 199.623 62.0397C199.623 54.9998 193.927 49.2927 186.901 49.2927C179.874 49.2927 174.178 54.9998 174.178 62.0397C174.178 69.0797 179.874 74.7868 186.901 74.7868Z" fill="#FFB6B6"/>
<path d="M203.886 79.0547C204.006 79.2574 204.078 79.4845 204.098 79.7192C204.118 79.9539 204.085 80.1901 204.002 80.4103C203.918 80.6304 203.786 80.8288 203.615 80.9906C203.444 81.1525 203.239 81.2736 203.015 81.345C201.308 81.9122 200.257 83.5666 199.031 84.89C197.809 86.2092 195.84 87.3049 194.279 86.4069C192.722 85.5131 192.615 83.2314 191.311 81.9939C190.042 80.7907 187.932 80.9368 186.439 81.8521L186.395 81.8796C186.137 82.0479 185.836 82.1368 185.528 82.1354C185.221 82.134 184.92 82.0423 184.664 81.8717C184.408 81.7011 184.208 81.459 184.087 81.1754C183.967 80.8918 183.933 80.5791 183.988 80.276C184.511 77.4895 185.033 74.7033 185.556 71.9175C184.183 75.2306 182.19 78.2498 179.684 80.8122C178.994 81.6102 178.12 82.2269 177.137 82.6083C176.245 82.892 175.379 81.9681 174.512 82.1357C176.665 80.2493 183.905 68.1576 182.609 60.075C181.087 60.2469 179.564 60.4188 178.042 60.5906C177.877 59.8687 177.525 59.2032 177.021 58.6613C177.083 59.3639 176.994 60.0715 176.76 60.7367C176.125 60.8098 175.486 60.8785 174.851 60.9516C173.968 61.0504 173.007 61.1364 172.248 60.6723C170.983 59.8989 170.944 58.0683 171.304 56.6245C172.359 52.4264 175.559 48.9158 179.474 47.0767C183.39 45.2419 184.548 49.3283 188.674 48.022C196.822 45.4438 203.067 49.8525 205.267 58.034C207.115 64.8962 205.773 72.1796 203.886 79.0547Z" fill="#2F2E41"/>
<path d="M239.108 297.518H223.529L223.462 297.396C223.263 297.034 223.071 296.651 222.891 296.257C221.286 292.815 220.608 288.878 220.01 285.405L219.559 282.787C219.504 282.47 219.545 282.143 219.677 281.85C219.808 281.556 220.024 281.309 220.297 281.139C220.57 280.969 220.887 280.885 221.208 280.897C221.529 280.908 221.839 281.016 222.099 281.205C224.466 282.931 226.834 284.656 229.204 286.378C230.101 287.032 231.126 287.789 232.107 288.607C232.201 288.147 232.3 287.685 232.399 287.229C232.468 286.914 232.628 286.627 232.86 286.405C233.092 286.182 233.385 286.034 233.702 285.979C234.019 285.924 234.344 285.965 234.638 286.097C234.931 286.229 235.178 286.445 235.348 286.718L237.171 289.652C238.5 291.795 239.673 293.906 239.434 296.184C239.435 296.211 239.433 296.239 239.428 296.266C239.38 296.64 239.291 297.008 239.163 297.363L239.108 297.518Z" fill="#FF6868"/>
<path d="M262.633 297.855L84.8194 298C84.6419 297.999 84.472 297.94 84.3468 297.835C84.2216 297.73 84.1514 297.588 84.1514 297.44C84.1514 297.292 84.2216 297.15 84.3468 297.045C84.472 296.94 84.6419 296.881 84.8194 296.88L262.633 296.735C262.811 296.736 262.981 296.795 263.106 296.9C263.231 297.005 263.301 297.147 263.301 297.295C263.301 297.443 263.231 297.585 263.106 297.69C262.981 297.795 262.811 297.855 262.633 297.855Z" fill="#DFDFDF"/>
<path d="M120.337 89.0845L104.053 75.3068C103.497 74.8348 103.15 74.1609 103.088 73.4329C103.027 72.7049 103.257 71.9822 103.726 71.4235L106.723 67.8678C107.194 67.3102 107.867 66.9625 108.594 66.9011C109.32 66.8397 110.042 67.0697 110.599 67.5404L126.883 81.3181C127.439 81.7901 127.786 82.464 127.847 83.192C127.909 83.9201 127.679 84.6427 127.209 85.2014L124.212 88.7571C123.741 89.3148 123.069 89.6624 122.342 89.7238C121.615 89.7852 120.894 89.5552 120.337 89.0845Z" fill="#3F3D56"/>
<path d="M104.908 71.71C104.654 72.0111 104.531 72.4005 104.564 72.7928C104.597 73.1851 104.784 73.5483 105.084 73.8026L121.367 87.5803C121.668 87.834 122.056 87.9579 122.448 87.9248C122.839 87.8917 123.202 87.7044 123.456 87.4039L126.453 83.8482C126.706 83.5471 126.83 83.1577 126.797 82.7654C126.764 82.3731 126.577 82.0099 126.277 81.7556L109.993 67.9779C109.693 67.7242 109.304 67.6004 108.913 67.6334C108.521 67.6665 108.159 67.8538 107.905 68.1543L104.908 71.71Z" fill="white"/>
<path d="M114.467 77.0662C114.411 77.1454 114.336 77.2104 114.25 77.2559C114.165 77.3014 114.069 77.3263 113.972 77.3285L111.414 77.3873C111.331 77.3892 111.25 77.3749 111.173 77.3451C111.096 77.3153 111.026 77.2707 110.967 77.2138C110.907 77.1569 110.86 77.0889 110.827 77.0135C110.793 76.9382 110.775 76.857 110.773 76.7746C110.771 76.6923 110.786 76.6104 110.816 76.5336C110.845 76.4568 110.89 76.3866 110.947 76.327C111.003 76.2674 111.071 76.2197 111.146 76.1864C111.222 76.1531 111.303 76.135 111.385 76.1332L113.059 76.0946L111.41 71.7368C111.352 71.5814 111.357 71.4091 111.426 71.2577C111.494 71.1063 111.619 70.9882 111.774 70.9294C111.929 70.8705 112.101 70.8757 112.253 70.9437C112.404 71.0117 112.522 71.137 112.581 71.2922L114.543 76.4791C114.579 76.5729 114.591 76.6739 114.58 76.7736C114.568 76.8732 114.533 76.9687 114.477 77.0519L114.467 77.0662Z" fill="#16C47F"/>
<path d="M114.795 78.1613C115.412 78.2521 116.002 78.4774 116.523 78.8213C117.044 79.1651 117.483 79.6192 117.81 80.1515C118.136 80.6839 118.342 81.2815 118.414 81.9023C118.485 82.5231 118.419 83.1521 118.222 83.7448L130.233 93.0147L122.783 95.5833L112.519 86.3867C111.548 85.9881 110.755 85.2461 110.293 84.3015C109.831 83.3568 109.73 82.2751 110.011 81.2612C110.291 80.2473 110.933 79.3717 111.815 78.8004C112.697 78.2291 113.757 78.0017 114.795 78.1613Z" fill="#FFB6B6"/>
<path d="M177.326 82.7446L146.575 101.688C146.575 101.688 134.176 97.092 136.599 94.9642C139.022 92.8364 131.309 91.3979 131.309 91.3979L122.787 85.6537L117.842 91.4116C117.842 91.4116 118.743 100.764 120.276 99.1448C121.809 97.5253 124.101 101.949 124.101 101.949C124.101 101.949 124.778 106.889 129.142 105.646C133.506 104.403 145.216 117.432 145.216 117.432L183.062 103.29L177.326 82.7446Z" fill="#3F3D56"/>
<path d="M121.817 63.9398C121.461 63.9398 121.109 63.8566 120.79 63.6969C120.471 63.5371 120.194 63.3051 119.98 63.0193L114.348 55.4952C114.167 55.2535 114.036 54.9785 113.961 54.6858C113.886 54.3931 113.869 54.0885 113.912 53.7894C113.955 53.4903 114.056 53.2025 114.209 52.9425C114.363 52.6826 114.566 52.4555 114.808 52.2742C115.295 51.9081 115.907 51.7509 116.51 51.8372C116.809 51.8799 117.096 51.9812 117.355 52.1351C117.615 52.2891 117.841 52.4927 118.022 52.7344L121.707 57.6565L131.171 43.4338C131.509 42.926 132.034 42.5735 132.631 42.4539C133.228 42.3342 133.849 42.4571 134.355 42.7956C134.862 43.1341 135.214 43.6604 135.333 44.2588C135.453 44.8572 135.33 45.4786 134.992 45.9864L123.728 62.9152C123.524 63.2214 123.25 63.4741 122.929 63.6523C122.608 63.8304 122.248 63.9288 121.881 63.9391C121.86 63.9395 121.839 63.9398 121.817 63.9398Z" fill="white"/>
</g>
<defs>
<clipPath id="clip0_34_2740">
<rect width="255" height="298" fill="white" transform="translate(0.299805)"/>
</clipPath>
</defs>
</svg>
