<svg width="346" height="288" viewBox="0 0 346 288" fill="none" xmlns="http://www.w3.org/2000/svg">
<g clip-path="url(#clip0_34_2853)">
<path d="M162.347 288C237.597 288 298.598 284.885 298.598 281.043C298.598 277.201 237.597 274.087 162.347 274.087C87.0977 274.087 26.0959 277.201 26.0959 281.043C26.0959 284.885 87.0977 288 162.347 288Z" fill="#F2F2F2"/>
<path d="M241.951 66.84H240.403V24.5033C240.403 18.0047 237.818 11.7721 233.215 7.17688C228.613 2.58161 222.371 7.17503e-06 215.862 0H126.026C119.518 -1.23e-05 113.275 2.58156 108.673 7.17682C104.071 11.7721 101.485 18.0046 101.485 24.5033V256.766C101.485 263.264 104.07 269.497 108.673 274.092C113.275 278.687 119.517 281.269 126.026 281.269H215.862C222.371 281.269 228.613 278.687 233.215 274.092C237.818 269.497 240.403 263.264 240.403 256.766V96.976H241.951L241.951 66.84Z" fill="#3F3D56"/>
<path d="M235.18 24.6744V256.595C235.18 261.448 233.248 266.103 229.811 269.535C226.374 272.967 221.712 274.895 216.851 274.895H126.585C121.724 274.895 117.062 272.967 113.625 269.535C110.188 266.103 108.257 261.448 108.257 256.595V24.6744C108.257 19.8211 110.188 15.1665 113.625 11.7347C117.062 8.30287 121.724 6.37485 126.585 6.37476H137.535C136.997 7.69495 136.792 9.12693 136.939 10.5448C137.085 11.9626 137.578 13.3228 138.374 14.5057C139.171 15.6886 140.246 16.6581 141.506 17.3287C142.765 17.9993 144.171 18.3506 145.598 18.3517H197.064C198.492 18.3506 199.897 17.9993 201.157 17.3287C202.416 16.658 203.492 15.6886 204.288 14.5057C205.084 13.3228 205.577 11.9626 205.724 10.5447C205.87 9.12693 205.665 7.69495 205.127 6.37476H216.851C221.712 6.37485 226.374 8.30287 229.811 11.7347C233.248 15.1665 235.179 19.8211 235.18 24.6744Z" fill="white"/>
<path d="M206.1 124.677C205.5 124.99 204.89 125.287 204.269 125.566C203.704 125.821 203.13 126.061 202.547 126.285C202.334 126.366 202.117 126.448 201.9 126.529C200.187 127.149 198.426 127.634 196.636 127.978C195.75 128.152 194.852 128.288 193.942 128.388C193.191 128.473 192.432 128.533 191.666 128.569C191.12 128.596 190.574 128.608 190.025 128.608C187.848 128.609 185.676 128.406 183.537 128.001C182.98 127.901 182.434 127.781 181.888 127.649C179.248 127.018 176.693 126.076 174.275 124.844C174.058 124.735 173.841 124.619 173.624 124.507C173.303 124.337 172.99 124.16 172.676 123.974C172.827 123.765 172.99 123.561 173.156 123.36C174.967 121.118 177.231 119.284 179.8 117.974C182.369 116.665 185.186 115.912 188.066 115.762C190.946 115.613 193.826 116.071 196.517 117.107C199.208 118.143 201.651 119.733 203.685 121.775C204.391 122.482 205.045 123.239 205.643 124.04C205.802 124.248 205.953 124.461 206.1 124.677Z" fill="#16C47F"/>
<path d="M190.797 107.701C200.184 107.701 207.794 100.103 207.794 90.7306C207.794 81.3583 200.184 73.7605 190.797 73.7605C181.41 73.7605 173.801 81.3583 173.801 90.7306C173.801 100.103 181.41 107.701 190.797 107.701Z" fill="#2F2E41"/>
<path d="M195.318 107.725C201.448 104.379 203.701 96.7045 200.35 90.5837C196.999 84.463 189.313 82.2135 183.182 85.5594C177.052 88.9053 174.799 96.5795 178.15 102.7C181.501 108.821 189.188 111.07 195.318 107.725Z" fill="#A0616A"/>
<path d="M202.542 88.6976C199.652 90.6869 196.221 91.7456 192.71 91.7316C193.962 92.5986 195.388 93.1842 196.889 93.4481C192.221 94.4478 187.397 94.4749 182.718 93.5276C181.678 93.3611 180.674 93.017 179.751 92.5103C179.291 92.2538 178.891 91.9036 178.575 91.4823C178.26 91.0611 178.036 90.5783 177.92 90.0652C177.609 88.2919 178.993 86.6807 180.431 85.5949C182.634 83.9577 185.173 82.8298 187.865 82.2927C190.557 81.7555 193.335 81.8226 195.998 82.489C197.737 82.9378 199.479 83.6961 200.609 85.0904C201.738 86.4847 202.073 88.6343 200.997 90.0701L202.542 88.6976Z" fill="#2F2E41"/>
<path d="M190.025 59.0422C182.427 59.0411 175.038 61.5202 168.982 66.1017C162.927 70.6832 158.538 77.1158 156.484 84.4191C154.431 91.7225 154.825 99.4959 157.607 106.555C160.389 113.614 165.406 119.571 171.894 123.518L172.119 123.649C172.304 123.762 172.49 123.87 172.676 123.974C172.99 124.16 173.303 124.337 173.624 124.507C173.841 124.62 174.058 124.735 174.275 124.844C176.693 126.076 179.248 127.018 181.888 127.65C182.434 127.781 182.98 127.901 183.537 128.001C185.676 128.406 187.848 128.609 190.025 128.608C190.574 128.608 191.12 128.596 191.666 128.569C192.432 128.535 193.191 128.474 193.942 128.388C194.852 128.287 195.75 128.151 196.636 127.978C198.426 127.634 200.186 127.149 201.9 126.529C202.117 126.448 202.334 126.366 202.547 126.285C203.131 126.061 203.705 125.821 204.269 125.566C204.888 125.288 205.499 124.992 206.1 124.678C212.126 121.527 217.106 116.698 220.437 110.776C220.453 110.745 220.472 110.714 220.488 110.683C222.265 107.499 223.526 104.054 224.223 100.476C225.202 95.4396 225.054 90.2489 223.789 85.2761C222.523 80.3032 220.173 75.6712 216.905 71.7117C213.637 67.7521 209.532 64.5631 204.885 62.3728C200.238 60.1825 195.163 59.0451 190.025 59.0422ZM219.853 110.231C219.822 110.285 219.795 110.339 219.764 110.389C216.499 116.224 211.589 120.971 205.643 124.04C205.051 124.349 204.448 124.639 203.836 124.909C203.329 125.137 202.81 125.354 202.287 125.555C202.067 125.64 201.842 125.725 201.618 125.802C200.137 126.342 198.62 126.776 197.077 127.101C195.933 127.344 194.777 127.526 193.613 127.646C192.897 127.723 192.169 127.777 191.437 127.804C190.969 127.823 190.497 127.835 190.025 127.835C187.918 127.838 185.816 127.642 183.746 127.251C182.487 127.02 181.243 126.715 180.019 126.339C178.154 125.764 176.343 125.031 174.604 124.148C174.402 124.044 174.201 123.939 174.003 123.831C173.721 123.68 173.435 123.526 173.156 123.36C172.947 123.244 172.738 123.12 172.533 122.996C172.413 122.927 172.293 122.853 172.173 122.78C166.484 119.292 161.947 114.214 159.123 108.174C156.299 102.135 155.313 95.4011 156.288 88.8076C157.262 82.2141 160.154 76.0513 164.605 71.0839C169.055 66.1164 174.868 62.5628 181.323 60.864C187.778 59.1651 194.59 59.3959 200.915 61.5275C207.239 63.6591 212.798 67.5978 216.901 72.8549C221.004 78.1121 223.471 84.4563 223.996 91.1006C224.521 97.7449 223.08 104.397 219.853 110.231Z" fill="#FF9D23"/>
<path d="M182.19 73.9946C182.007 72.0746 179.651 70.8926 177.809 71.4726C175.967 72.0525 174.757 73.9046 174.392 75.7984C174.216 76.596 174.199 77.4204 174.343 78.2243C174.487 79.0283 174.788 79.796 175.23 80.4834C176.161 81.8215 177.872 82.6566 179.468 82.3169C181.29 81.9291 182.553 80.1528 182.914 78.3281C183.275 76.5033 182.916 74.622 182.558 72.7967L182.19 73.9946Z" fill="#2F2E41"/>
<path d="M208.117 76.7376C207.935 74.8175 205.579 73.6355 203.737 74.2155C201.894 74.7954 200.685 76.6475 200.319 78.5413C200.143 79.3389 200.127 80.1633 200.271 80.9673C200.414 81.7712 200.716 82.5389 201.157 83.2263C202.088 84.5644 203.8 85.3995 205.396 85.0598C207.218 84.6721 208.48 82.8957 208.841 81.071C209.202 79.2462 208.844 77.3649 208.486 75.5396L208.117 76.7376Z" fill="#2F2E41"/>
<path d="M129.81 107.726C129.569 107.726 129.33 107.675 129.11 107.578C128.889 107.48 128.692 107.338 128.53 107.16L109.322 86.2388C109.104 86.0019 108.839 85.8128 108.544 85.6832C108.25 85.5537 107.931 85.4866 107.609 85.4862H6.10955C4.56924 85.4845 3.09251 84.8728 2.00335 83.7853C0.914185 82.6979 0.301534 81.2234 0.299805 79.6855V43.1394C0.301533 41.6014 0.914185 40.127 2.00335 39.0395C3.09251 37.952 4.56924 37.3403 6.10955 37.3386H137.609C139.15 37.3403 140.626 37.952 141.716 39.0395C142.805 40.127 143.417 41.6014 143.419 43.1394V79.6855C143.417 81.2234 142.805 82.6979 141.716 83.7854C140.626 84.8728 139.15 85.4845 137.609 85.4863H133.881C133.265 85.487 132.674 85.7317 132.239 86.1668C131.803 86.6019 131.558 87.1917 131.557 87.807V105.984C131.559 106.335 131.453 106.678 131.255 106.968C131.056 107.258 130.774 107.48 130.446 107.606C130.243 107.685 130.027 107.726 129.81 107.726Z" fill="white"/>
<path d="M129.81 107.726C129.569 107.726 129.33 107.675 129.11 107.578C128.889 107.48 128.692 107.338 128.53 107.16L109.322 86.2388C109.104 86.0019 108.839 85.8128 108.544 85.6832C108.25 85.5537 107.931 85.4866 107.609 85.4862H6.10955C4.56924 85.4845 3.09251 84.8728 2.00335 83.7853C0.914185 82.6979 0.301534 81.2234 0.299805 79.6855V43.1394C0.301533 41.6014 0.914185 40.127 2.00335 39.0395C3.09251 37.952 4.56924 37.3403 6.10955 37.3386H137.609C139.15 37.3403 140.626 37.952 141.716 39.0395C142.805 40.127 143.417 41.6014 143.419 43.1394V79.6855C143.417 81.2234 142.805 82.6979 141.716 83.7854C140.626 84.8728 139.15 85.4845 137.609 85.4863H133.881C133.265 85.487 132.674 85.7317 132.239 86.1668C131.803 86.6019 131.558 87.1917 131.557 87.807V105.984C131.559 106.335 131.453 106.678 131.255 106.968C131.056 107.258 130.774 107.48 130.446 107.606C130.243 107.685 130.027 107.726 129.81 107.726ZM6.10955 38.1116C4.77449 38.1131 3.49454 38.6433 2.55051 39.5858C1.60648 40.5284 1.07547 41.8064 1.07396 43.1394V79.6855C1.07547 81.0185 1.60649 82.2965 2.55052 83.239C3.49455 84.1816 4.77449 84.7118 6.10955 84.7133H107.609C108.038 84.7138 108.463 84.8032 108.856 84.9758C109.249 85.1485 109.602 85.4007 109.893 85.7165L129.1 106.638C129.232 106.781 129.404 106.882 129.594 106.926C129.785 106.97 129.984 106.956 130.165 106.886C130.347 106.815 130.504 106.691 130.614 106.53C130.724 106.369 130.783 106.179 130.783 105.984V87.807C130.784 86.9868 131.111 86.2004 131.691 85.6205C132.272 85.0405 133.06 84.7142 133.881 84.7133H137.609C138.945 84.7118 140.224 84.1816 141.168 83.239C142.113 82.2965 142.644 81.0185 142.645 79.6855V43.1394C142.644 41.8064 142.113 40.5284 141.168 39.5858C140.224 38.6433 138.945 38.1131 137.609 38.1116H6.10955Z" fill="#FF9D23"/>
<path d="M14.5504 53.4601C17.3581 53.4601 19.6342 51.1875 19.6342 48.3842C19.6342 45.5809 17.3581 43.3083 14.5504 43.3083C11.7428 43.3083 9.46667 45.5809 9.46667 48.3842C9.46667 51.1875 11.7428 53.4601 14.5504 53.4601Z" fill="#16C47F"/>
<path d="M131.678 76.4709H12.0406C11.6843 76.4713 11.3314 76.4016 11.0021 76.2658C10.6727 76.1299 10.3734 75.9306 10.1213 75.6791C9.86922 75.4277 9.66921 75.1291 9.53275 74.8005C9.39629 74.4718 9.32605 74.1195 9.32605 73.7638C9.32605 73.408 9.39629 73.0557 9.53275 72.727C9.66921 72.3984 9.86922 72.0998 10.1213 71.8484C10.3734 71.597 10.6727 71.3976 11.0021 71.2618C11.3314 71.1259 11.6843 71.0562 12.0406 71.0566H131.678C132.397 71.0575 133.086 71.3431 133.594 71.8507C134.101 72.3583 134.387 73.0464 134.387 73.7638C134.387 74.4812 134.101 75.1693 133.594 75.6769C133.086 76.1844 132.397 76.47 131.678 76.4709Z" fill="#E6E6E6"/>
<path d="M92.7029 64.9655H12.0406C11.6843 64.966 11.3314 64.8962 11.0021 64.7604C10.6727 64.6245 10.3734 64.4252 10.1213 64.1738C9.86922 63.9224 9.66921 63.6238 9.53275 63.2951C9.39629 62.9665 9.32605 62.6142 9.32605 62.2584C9.32605 61.9026 9.39629 61.5503 9.53275 61.2217C9.66921 60.893 9.86922 60.5945 10.1213 60.343C10.3734 60.0916 10.6727 59.8923 11.0021 59.7564C11.3314 59.6206 11.6843 59.5508 12.0406 59.5513H92.7029C93.422 59.5513 94.1117 59.8365 94.6202 60.3442C95.1286 60.8519 95.4143 61.5404 95.4143 62.2584C95.4143 62.9764 95.1286 63.6649 94.6202 64.1726C94.1117 64.6803 93.422 64.9655 92.7029 64.9655Z" fill="#E6E6E6"/>
<path d="M215.153 231.665C214.825 231.539 214.543 231.316 214.345 231.027C214.146 230.737 214.041 230.394 214.042 230.043V211.866C214.042 211.251 213.797 210.661 213.361 210.226C212.925 209.791 212.334 209.546 211.718 209.545H207.99C206.45 209.543 204.973 208.932 203.884 207.844C202.795 206.757 202.182 205.282 202.18 203.744V167.198C202.182 165.66 202.795 164.186 203.884 163.098C204.973 162.011 206.45 161.399 207.99 161.397H339.49C341.03 161.399 342.507 162.011 343.596 163.098C344.685 164.186 345.298 165.66 345.3 167.198V203.744C345.298 205.282 344.685 206.757 343.596 207.844C342.507 208.932 341.03 209.543 339.49 209.545H237.991C237.669 209.545 237.35 209.613 237.055 209.742C236.76 209.872 236.495 210.061 236.277 210.298L217.07 231.219C216.908 231.397 216.71 231.539 216.49 231.637C216.269 231.734 216.031 231.785 215.79 231.785C215.572 231.785 215.356 231.744 215.153 231.665Z" fill="white"/>
<path d="M215.153 231.665C214.825 231.539 214.543 231.316 214.345 231.027C214.146 230.737 214.041 230.394 214.042 230.043V211.866C214.042 211.251 213.797 210.661 213.361 210.226C212.925 209.791 212.334 209.546 211.718 209.545H207.99C206.45 209.543 204.973 208.932 203.884 207.844C202.795 206.757 202.182 205.282 202.18 203.744V167.198C202.182 165.66 202.795 164.186 203.884 163.098C204.973 162.011 206.45 161.399 207.99 161.397H339.49C341.03 161.399 342.507 162.011 343.596 163.098C344.685 164.186 345.298 165.66 345.3 167.198V203.744C345.298 205.282 344.685 206.757 343.596 207.844C342.507 208.932 341.03 209.543 339.49 209.545H237.991C237.669 209.545 237.35 209.613 237.055 209.742C236.76 209.872 236.495 210.061 236.277 210.298L217.07 231.219C216.908 231.397 216.71 231.539 216.49 231.637C216.269 231.734 216.031 231.785 215.79 231.785C215.572 231.785 215.356 231.744 215.153 231.665ZM207.99 162.17C206.655 162.172 205.375 162.702 204.431 163.645C203.487 164.587 202.956 165.865 202.955 167.198V203.744C202.956 205.077 203.487 206.355 204.431 207.298C205.375 208.24 206.655 208.771 207.99 208.772H211.718C212.54 208.773 213.327 209.099 213.908 209.679C214.489 210.259 214.816 211.046 214.817 211.866V230.043C214.817 230.238 214.876 230.428 214.986 230.589C215.096 230.75 215.252 230.874 215.434 230.944C215.616 231.015 215.815 231.029 216.005 230.985C216.195 230.941 216.367 230.84 216.499 230.697L235.707 209.775C235.997 209.46 236.35 209.207 236.744 209.035C237.137 208.862 237.561 208.773 237.991 208.772H339.49C340.825 208.771 342.105 208.24 343.049 207.298C343.993 206.355 344.524 205.077 344.526 203.744V167.198C344.524 165.865 343.993 164.587 343.049 163.645C342.105 162.702 340.825 162.172 339.49 162.17H207.99Z" fill="#F93827"/>
<path d="M174.166 242.982C168.774 246.429 162.526 248.309 156.123 248.411C149.721 248.513 143.416 246.832 137.916 243.558C138.884 241.759 140.11 240.112 141.555 238.669C143.785 236.431 146.499 234.734 149.488 233.708C152.478 232.682 155.663 232.353 158.8 232.747C161.936 233.142 164.94 234.249 167.581 235.984C170.222 237.718 172.43 240.034 174.035 242.754C174.077 242.827 174.124 242.904 174.166 242.982Z" fill="#16C47F"/>
<path d="M154.528 224.5C163.977 224.5 171.637 216.852 171.637 207.417C171.637 197.983 163.977 190.334 154.528 190.334C145.079 190.334 137.418 197.983 137.418 207.417C137.418 216.852 145.079 224.5 154.528 224.5Z" fill="#2F2E41"/>
<path d="M167.259 219.467C170.632 213.305 168.364 205.58 162.193 202.212C156.022 198.844 148.285 201.108 144.912 207.27C141.538 213.431 143.806 221.156 149.977 224.524C156.148 227.892 163.885 225.628 167.259 219.467Z" fill="#FFB8B8"/>
<path d="M142.705 205.371C145.615 207.373 149.068 208.439 152.603 208.425C151.342 209.298 149.907 209.887 148.396 210.153C153.095 211.159 157.951 211.187 162.661 210.233C163.708 210.065 164.718 209.719 165.647 209.209C166.11 208.951 166.514 208.598 166.831 208.174C167.149 207.75 167.373 207.264 167.491 206.748C167.804 204.963 166.41 203.341 164.963 202.248C162.746 200.6 160.19 199.464 157.48 198.923C154.77 198.383 151.973 198.45 149.292 199.121C147.542 199.573 145.788 200.336 144.651 201.74C143.514 203.143 143.177 205.307 144.261 206.753L142.705 205.371Z" fill="#2F2E41"/>
<path d="M155.575 248.802C147.196 248.799 139.098 245.78 132.768 240.299C126.438 234.817 122.299 227.241 121.111 218.959C119.923 210.677 121.766 202.246 126.301 195.211C130.836 188.176 137.76 183.009 145.801 180.658C153.843 178.308 162.464 178.931 170.083 182.414C177.702 185.896 183.807 192.005 187.28 199.619C190.753 207.233 191.36 215.841 188.989 223.866C186.619 231.891 181.431 238.793 174.376 243.307C168.765 246.899 162.24 248.806 155.575 248.802ZM155.575 180.009C148.837 180.009 142.25 182.003 136.648 185.74C131.045 189.477 126.678 194.789 124.099 201.005C121.521 207.22 120.846 214.059 122.16 220.657C123.474 227.255 126.719 233.316 131.483 238.073C136.248 242.83 142.318 246.07 148.927 247.382C155.535 248.694 162.385 248.021 168.61 245.446C174.835 242.871 180.155 238.511 183.898 232.917C187.641 227.323 189.638 220.747 189.638 214.019C189.628 205.002 186.035 196.358 179.65 189.982C173.264 183.606 164.606 180.019 155.575 180.009Z" fill="#F93827"/>
<path d="M218.54 177.133C221.348 177.133 223.624 174.86 223.624 172.057C223.624 169.253 221.348 166.981 218.54 166.981C215.733 166.981 213.456 169.253 213.456 172.057C213.456 174.86 215.733 177.133 218.54 177.133Z" fill="#16C47F"/>
<path d="M335.668 200.143H216.03C215.674 200.144 215.321 200.074 214.992 199.938C214.662 199.802 214.363 199.603 214.111 199.352C213.859 199.1 213.659 198.802 213.522 198.473C213.386 198.144 213.316 197.792 213.316 197.436C213.316 197.08 213.386 196.728 213.522 196.399C213.659 196.071 213.859 195.772 214.111 195.521C214.363 195.269 214.662 195.07 214.992 194.934C215.321 194.798 215.674 194.729 216.03 194.729H335.668C336.387 194.729 337.077 195.014 337.585 195.522C338.094 196.03 338.379 196.718 338.379 197.436C338.379 198.154 338.094 198.843 337.585 199.35C337.077 199.858 336.387 200.143 335.668 200.143Z" fill="#E6E6E6"/>
<path d="M296.693 188.638H216.03C215.674 188.638 215.321 188.569 214.992 188.433C214.662 188.297 214.363 188.098 214.111 187.846C213.859 187.595 213.659 187.296 213.522 186.967C213.386 186.639 213.316 186.287 213.316 185.931C213.316 185.575 213.386 185.223 213.522 184.894C213.659 184.565 213.859 184.267 214.111 184.015C214.363 183.764 214.662 183.565 214.992 183.429C215.321 183.293 215.674 183.223 216.03 183.224H296.693C297.411 183.224 298.1 183.51 298.608 184.018C299.115 184.525 299.401 185.213 299.401 185.931C299.401 186.648 299.115 187.336 298.608 187.844C298.1 188.351 297.411 188.637 296.693 188.638Z" fill="#E6E6E6"/>
<path d="M214.99 235.125C220.228 235.125 224.475 234.654 224.475 234.074C224.475 233.493 220.228 233.022 214.99 233.022C209.751 233.022 205.505 233.493 205.505 234.074C205.505 234.654 209.751 235.125 214.99 235.125Z" fill="#F2F2F2"/>
<path d="M130.22 111.452C135.458 111.452 139.705 110.982 139.705 110.401C139.705 109.821 135.458 109.35 130.22 109.35C124.981 109.35 120.735 109.821 120.735 110.401C120.735 110.982 124.981 111.452 130.22 111.452Z" fill="#F2F2F2"/>
</g>
<defs>
<clipPath id="clip0_34_2853">
<rect width="345" height="288" fill="white" transform="translate(0.299805)"/>
</clipPath>
</defs>
</svg>
