<svg width="294" height="282" viewBox="0 0 294 282" fill="none" xmlns="http://www.w3.org/2000/svg">
<g clip-path="url(#clip0_34_2967)">
<path d="M171.507 66.8391H169.968V24.5032C169.968 21.2854 169.336 18.099 168.108 15.1261C166.88 12.1533 165.08 9.45205 162.811 7.17675C160.542 4.90145 157.848 3.09661 154.883 1.86531C151.918 0.633998 148.741 0.000332394 145.532 0.00048831H56.0841C52.8752 0.000436338 49.6976 0.634192 46.733 1.86557C43.7683 3.09695 41.0745 4.90183 38.8054 7.17717C36.5364 9.4525 34.7365 12.1537 33.5085 15.1266C32.2805 18.0995 31.6485 21.2858 31.6486 24.5036V256.761C31.6486 263.259 34.223 269.492 38.8054 274.087C43.3879 278.682 49.6031 281.264 56.0837 281.264H145.532C152.012 281.264 158.228 278.682 162.81 274.087C167.393 269.492 169.967 263.259 169.967 256.761V96.9745H171.506L171.507 66.8391Z" fill="#3F3D56"/>
<path d="M164.985 22.8615V258.401C164.984 263.328 163.032 268.053 159.558 271.537C156.084 275.022 151.372 276.98 146.459 276.982H55.1748C50.2594 276.983 45.5449 275.025 42.0684 271.541C38.5919 268.056 36.6381 263.33 36.6366 258.401V22.8615C36.6381 17.9327 38.5918 13.2062 42.0682 9.72176C45.5445 6.23729 50.2588 4.28013 55.174 4.28076H66.2473C65.7036 5.62155 65.4966 7.07574 65.6446 8.51552C65.7926 9.95529 66.2911 11.3366 67.0961 12.5379C67.9011 13.7393 68.9882 14.724 70.2616 15.4054C71.535 16.0869 72.9559 16.4442 74.3993 16.4461H126.442C127.885 16.4442 129.306 16.0869 130.58 15.4054C131.853 14.724 132.94 13.7393 133.745 12.5379C134.55 11.3366 135.049 9.95529 135.197 8.51552C135.345 7.07574 135.138 5.62155 134.594 4.28076H146.455C151.369 4.2816 156.081 6.23899 159.555 9.72261C163.03 13.2062 164.983 17.9309 164.985 22.858V22.8615Z" fill="white"/>
<path d="M101.79 117.092C91.3965 117.096 81.4275 112.96 74.0755 105.593C66.7234 98.2271 62.5904 88.2341 62.5856 77.8123V77.7774C62.5856 77.6951 62.5856 77.6085 62.5903 77.5261C62.7087 55.9975 80.2958 38.4658 101.79 38.4658C106.938 38.4655 112.036 39.4821 116.792 41.4575C121.549 43.4328 125.871 46.3283 129.512 49.9786C133.152 53.6289 136.04 57.9625 138.011 62.732C139.981 67.5015 140.995 72.6135 140.996 77.7761C140.996 82.9386 139.982 88.0507 138.012 92.8204C136.042 97.5901 133.155 101.924 129.515 105.575C125.874 109.225 121.553 112.121 116.796 114.097C112.04 116.073 106.942 117.09 101.794 117.091H101.79V117.092ZM101.79 39.2929C91.6571 39.3157 81.943 43.3469 74.7577 50.5108C67.5725 57.6747 63.4967 67.3925 63.4159 77.5527C63.4116 77.6405 63.4116 77.7109 63.4116 77.7778C63.4107 85.3905 65.661 92.8326 69.878 99.1628C74.0951 105.493 80.0894 110.427 87.103 113.341C94.1165 116.255 101.834 117.018 109.28 115.533C116.726 114.049 123.566 110.383 128.934 105.001C134.303 99.618 137.959 92.7599 139.441 85.2935C140.922 77.8272 140.162 70.088 137.257 63.0546C134.352 56.0213 129.433 50.0097 123.121 45.7801C116.808 41.5506 109.387 39.293 101.795 39.2929H101.79Z" fill="#F93827"/>
<path d="M84.6436 77.4434C89.291 77.4434 93.0585 73.6655 93.0585 69.0053C93.0585 64.345 89.291 60.5671 84.6436 60.5671C79.9962 60.5671 76.2288 64.345 76.2288 69.0053C76.2288 73.6655 79.9962 77.4434 84.6436 77.4434Z" fill="#3F3D56"/>
<path d="M111.031 95.0072H69.7501C69.6984 95.0078 69.6468 95.0037 69.5958 94.9949L89.1203 61.0849C89.2394 60.8736 89.4123 60.6979 89.6213 60.5756C89.8303 60.4533 90.068 60.3889 90.31 60.3889C90.552 60.3889 90.7896 60.4533 90.9986 60.5756C91.2076 60.6979 91.3805 60.8736 91.4997 61.0849L104.602 83.8404L105.23 84.9291L111.031 95.0072Z" fill="#16C47F"/>
<path d="M134.014 95.0075H98.3107L105.229 84.9302L105.727 84.204L114.742 71.0715C114.902 70.8706 115.101 70.7055 115.329 70.5871C115.556 70.4688 115.805 70.3997 116.061 70.3844C116.317 70.3691 116.573 70.4079 116.812 70.4983C117.052 70.5887 117.27 70.7288 117.452 70.9092C117.499 70.9605 117.542 71.0147 117.582 71.0715L134.014 95.0075Z" fill="#16C47F"/>
<path d="M142.329 158.425H61.2126C60.8144 158.424 60.4326 158.266 60.151 157.983C59.8694 157.701 59.711 157.318 59.7106 156.919V136.742C59.7111 136.343 59.8695 135.96 60.1511 135.677C60.4327 135.395 60.8144 135.236 61.2126 135.236H142.329C142.727 135.236 143.109 135.395 143.391 135.677C143.672 135.96 143.831 136.343 143.831 136.742V156.919C143.831 157.318 143.672 157.701 143.391 157.984C143.109 158.266 142.727 158.425 142.329 158.425V158.425ZM61.2126 135.838C60.9736 135.838 60.7445 135.933 60.5755 136.103C60.4065 136.272 60.3114 136.502 60.3112 136.742V156.919C60.3114 157.159 60.4065 157.388 60.5755 157.558C60.7445 157.727 60.9736 157.823 61.2126 157.823H142.329C142.568 157.823 142.797 157.727 142.966 157.558C143.135 157.388 143.23 157.159 143.231 156.919V136.742C143.23 136.502 143.135 136.272 142.966 136.103C142.797 135.933 142.568 135.838 142.329 135.838H61.2126Z" fill="#FF9D23"/>
<path d="M71.7274 153.157C75.2118 153.157 78.0364 150.324 78.0364 146.83C78.0364 143.336 75.2118 140.504 71.7274 140.504C68.2431 140.504 65.4185 143.336 65.4185 146.83C65.4185 150.324 68.2431 153.157 71.7274 153.157Z" fill="#16C47F"/>
<path d="M86.2986 142.612C86.0197 142.612 85.7523 142.723 85.5551 142.921C85.3579 143.119 85.2471 143.387 85.2471 143.667C85.2471 143.946 85.3579 144.215 85.5551 144.412C85.7523 144.61 86.0197 144.721 86.2986 144.721H135.869C136.009 144.727 136.149 144.704 136.28 144.654C136.411 144.605 136.531 144.53 136.633 144.433C136.735 144.337 136.816 144.221 136.872 144.092C136.929 143.964 136.959 143.825 136.961 143.685C136.964 143.544 136.938 143.405 136.886 143.274C136.834 143.144 136.756 143.025 136.657 142.926C136.559 142.826 136.441 142.747 136.312 142.693C136.183 142.639 136.044 142.612 135.904 142.613H86.2986V142.612Z" fill="#E6E6E6"/>
<path d="M86.2986 148.939C86.0197 148.939 85.7523 149.05 85.5551 149.248C85.3579 149.445 85.2471 149.714 85.2471 149.993C85.2471 150.273 85.3579 150.541 85.5551 150.739C85.7523 150.937 86.0197 151.048 86.2986 151.048H135.869C136.009 151.053 136.149 151.03 136.28 150.981C136.411 150.931 136.531 150.856 136.633 150.76C136.735 150.663 136.816 150.547 136.872 150.419C136.929 150.29 136.959 150.151 136.961 150.011C136.964 149.871 136.938 149.731 136.886 149.601C136.834 149.47 136.756 149.352 136.657 149.252C136.559 149.152 136.441 149.073 136.312 149.019C136.183 148.966 136.044 148.938 135.904 148.939H86.2986V148.939Z" fill="#E6E6E6"/>
<path d="M142.329 192.166H61.2126C60.8144 192.166 60.4326 192.007 60.151 191.725C59.8694 191.442 59.711 191.059 59.7106 190.66V170.483C59.7111 170.084 59.8695 169.701 60.1511 169.419C60.4327 169.136 60.8144 168.978 61.2126 168.977H142.329C142.727 168.978 143.109 169.136 143.391 169.419C143.672 169.701 143.831 170.084 143.831 170.483V190.66C143.831 191.06 143.672 191.442 143.391 191.725C143.109 192.007 142.727 192.166 142.329 192.166ZM61.2126 169.579C60.9736 169.58 60.7445 169.675 60.5755 169.844C60.4065 170.014 60.3114 170.244 60.3112 170.483V190.66C60.3114 190.9 60.4065 191.13 60.5755 191.299C60.7445 191.469 60.9736 191.564 61.2126 191.564H142.329C142.568 191.564 142.797 191.469 142.966 191.299C143.135 191.13 143.23 190.9 143.231 190.66V170.483C143.23 170.244 143.135 170.014 142.966 169.844C142.797 169.675 142.568 169.58 142.329 169.579H61.2126Z" fill="#FF9D23"/>
<path d="M71.7274 186.898C75.2118 186.898 78.0364 184.065 78.0364 180.571C78.0364 177.077 75.2118 174.245 71.7274 174.245C68.2431 174.245 65.4185 177.077 65.4185 180.571C65.4185 184.065 68.2431 186.898 71.7274 186.898Z" fill="#16C47F"/>
<path d="M86.2986 176.353C86.0197 176.353 85.7523 176.464 85.5551 176.661C85.3579 176.859 85.2471 177.127 85.2471 177.407C85.2471 177.687 85.3579 177.955 85.5551 178.153C85.7523 178.35 86.0197 178.461 86.2986 178.461H135.869C136.144 178.46 136.408 178.35 136.603 178.157C136.799 177.963 136.911 177.7 136.915 177.424C136.92 177.148 136.816 176.882 136.627 176.682C136.438 176.482 136.179 176.364 135.904 176.353H86.2986V176.353Z" fill="#E6E6E6"/>
<path d="M86.2986 182.68C86.0197 182.68 85.7523 182.791 85.5551 182.989C85.3579 183.187 85.2471 183.455 85.2471 183.735C85.2471 184.014 85.3579 184.283 85.5551 184.48C85.7523 184.678 86.0197 184.789 86.2986 184.789H135.869C136.144 184.788 136.408 184.678 136.603 184.484C136.799 184.29 136.911 184.027 136.915 183.752C136.92 183.476 136.816 183.21 136.627 183.009C136.438 182.809 136.179 182.691 135.904 182.681L86.2986 182.68Z" fill="#E6E6E6"/>
<path d="M142.329 225.907H61.2126C60.8144 225.907 60.4326 225.748 60.151 225.466C59.8694 225.183 59.711 224.8 59.7106 224.401V204.224C59.7111 203.825 59.8695 203.442 60.1511 203.16C60.4327 202.877 60.8144 202.719 61.2126 202.718H142.329C142.727 202.719 143.109 202.877 143.391 203.16C143.672 203.442 143.831 203.825 143.831 204.224V224.401C143.831 224.801 143.672 225.184 143.391 225.466C143.109 225.748 142.727 225.907 142.329 225.908V225.907ZM61.2126 203.32C60.9736 203.321 60.7445 203.416 60.5755 203.585C60.4065 203.755 60.3114 203.985 60.3112 204.224V224.401C60.3114 224.641 60.4065 224.871 60.5755 225.04C60.7445 225.21 60.9736 225.305 61.2126 225.305H142.329C142.568 225.305 142.797 225.21 142.966 225.04C143.135 224.871 143.23 224.641 143.231 224.401V204.224C143.23 203.985 143.135 203.755 142.966 203.585C142.797 203.416 142.568 203.321 142.329 203.32H61.2126Z" fill="#FF9D23"/>
<path d="M71.7274 220.639C75.2118 220.639 78.0364 217.807 78.0364 214.313C78.0364 210.819 75.2118 207.986 71.7274 207.986C68.2431 207.986 65.4185 210.819 65.4185 214.313C65.4185 217.807 68.2431 220.639 71.7274 220.639Z" fill="#16C47F"/>
<path d="M86.2986 210.095C86.0197 210.095 85.7523 210.206 85.5551 210.404C85.3579 210.602 85.2471 210.87 85.2471 211.149C85.2471 211.429 85.3579 211.697 85.5551 211.895C85.7523 212.093 86.0197 212.204 86.2986 212.204H135.869C136.009 212.209 136.149 212.187 136.28 212.137C136.411 212.088 136.531 212.012 136.633 211.916C136.735 211.819 136.816 211.703 136.872 211.575C136.929 211.446 136.959 211.308 136.961 211.167C136.964 211.027 136.938 210.887 136.886 210.757C136.834 210.627 136.756 210.508 136.657 210.408C136.559 210.308 136.441 210.229 136.312 210.176C136.183 210.122 136.044 210.095 135.904 210.095H86.2986V210.095Z" fill="#E6E6E6"/>
<path d="M86.2986 216.421C86.0197 216.421 85.7523 216.532 85.5551 216.73C85.3579 216.928 85.2471 217.196 85.2471 217.476C85.2471 217.756 85.3579 218.024 85.5551 218.221C85.7523 218.419 86.0197 218.53 86.2986 218.53H135.869C136.009 218.536 136.149 218.513 136.28 218.464C136.411 218.414 136.531 218.339 136.633 218.242C136.735 218.146 136.816 218.03 136.872 217.901C136.929 217.773 136.959 217.634 136.961 217.494C136.964 217.353 136.938 217.214 136.886 217.083C136.834 216.953 136.756 216.835 136.657 216.735C136.559 216.635 136.441 216.556 136.312 216.502C136.183 216.448 136.044 216.421 135.904 216.422H86.2986V216.421Z" fill="#E6E6E6"/>
<path d="M207.597 276.709H202.682L200.344 257.7H207.597L207.597 276.709Z" fill="#FEB8B8"/>
<path d="M208.85 281.486H193.003V281.285C193.004 279.644 193.653 278.071 194.81 276.911C195.967 275.752 197.535 275.1 199.171 275.1H208.851L208.85 281.486Z" fill="#2F2E41"/>
<path d="M268.651 273.482L263.866 274.611L257.244 256.644L264.305 254.977L268.651 273.482Z" fill="#FEB8B8"/>
<path d="M270.963 277.844L255.538 281.485L255.492 281.289C255.307 280.498 255.278 279.679 255.408 278.877C255.538 278.075 255.824 277.307 256.251 276.616C256.677 275.925 257.234 275.325 257.892 274.85C258.549 274.375 259.294 274.035 260.082 273.849L269.504 271.625L270.963 277.844Z" fill="#2F2E41"/>
<path d="M206.593 196.532C206.603 195.542 206.895 172.163 213.286 163.323L213.38 163.193L235.651 166.274L235.153 171.181C236.132 172.137 243.838 180.211 246.063 199.33L269.703 262.993L258.713 263.995L226.181 194.498L208.966 270.04H198.074L206.593 196.532Z" fill="#2F2E41"/>
<path d="M210.677 164.186L212.853 152.725C212.427 152.175 210.539 149.534 210.959 146.437C211.233 144.417 212.436 142.645 214.534 141.17L220.178 127.967L220.254 127.922C220.634 127.698 229.618 122.488 234.517 127.403C234.639 127.498 246.698 137.099 241.857 150.047L235.879 168.034L210.677 164.186Z" fill="#CCCCCC"/>
<path d="M203.102 179.692C203.689 179.624 204.254 179.429 204.758 179.119C205.261 178.809 205.691 178.392 206.016 177.897C206.342 177.403 206.555 176.843 206.641 176.257C206.728 175.671 206.685 175.073 206.516 174.505L218.169 166.086L211.193 163.426L201.197 171.828C200.267 172.178 199.497 172.858 199.033 173.738C198.569 174.618 198.442 175.639 198.676 176.606C198.911 177.574 199.49 178.422 200.306 178.991C201.121 179.559 202.116 179.809 203.102 179.692V179.692Z" fill="#FEB8B8"/>
<path d="M205.244 166.072L223.034 152.017L217.746 133.897C217.497 133.039 217.426 132.139 217.539 131.252C217.652 130.366 217.945 129.512 218.401 128.744C218.824 128.02 219.392 127.393 220.07 126.903C220.748 126.412 221.521 126.069 222.339 125.895C225.385 125.249 228.149 126.959 230.555 130.978L230.573 131.015C230.971 131.99 240.239 154.964 233.162 159.877C226.24 164.682 210.187 171.678 210.026 171.749L209.838 171.831L205.244 166.072Z" fill="#CCCCCC"/>
<path d="M228.888 122.625C234.84 122.625 239.666 117.787 239.666 111.818C239.666 105.849 234.84 101.011 228.888 101.011C222.936 101.011 218.111 105.849 218.111 111.818C218.111 117.787 222.936 122.625 228.888 122.625Z" fill="#FEB8B8"/>
<path d="M245.784 107.96C251.05 107.96 255.318 103.679 255.318 98.3991C255.318 93.119 251.05 88.8386 245.784 88.8386C240.518 88.8386 236.25 93.119 236.25 98.3991C236.25 103.679 240.518 107.96 245.784 107.96Z" fill="#2F2E41"/>
<path d="M254.007 106.316C252.773 107.21 251.344 107.794 249.838 108.021C248.333 108.247 246.795 108.109 245.354 107.617C243.913 107.126 242.61 106.295 241.554 105.196C240.499 104.096 239.721 102.759 239.286 101.296C239.45 102.608 239.884 103.871 240.56 105.006C241.235 106.141 242.138 107.123 243.212 107.891C244.285 108.658 245.506 109.194 246.796 109.465C248.086 109.735 249.419 109.734 250.709 109.462C251.999 109.19 253.219 108.653 254.291 107.885C255.364 107.116 256.266 106.133 256.94 104.997C257.614 103.861 258.046 102.597 258.209 101.285C258.372 99.9735 258.261 98.6421 257.885 97.3752C258.098 99.0773 257.851 100.806 257.168 102.379C256.486 103.952 255.394 105.312 254.007 106.316Z" fill="#2F2E41"/>
<path d="M216.381 106.326C218.045 103.338 218.682 102.091 220.829 100.271C222.727 98.6636 225.061 98.1918 226.944 99.7143C229.234 98.7117 231.79 98.4955 234.215 99.0993C236.64 99.7032 238.798 101.093 240.355 103.054C241.911 105.014 242.778 107.435 242.821 109.94C242.865 112.445 242.082 114.895 240.594 116.908C239.106 118.921 236.997 120.385 234.594 121.073C232.191 121.76 229.629 121.633 227.306 120.711C224.983 119.788 223.029 118.122 221.747 115.971C220.465 113.82 219.927 111.305 220.217 108.816C218.58 108.587 218.018 106.558 216.381 106.326Z" fill="#2F2E41"/>
<path d="M292.535 282H1.06464C0.641967 282 0.299805 281.815 0.299805 281.587C0.299805 281.358 0.642362 281.173 1.06464 281.173H292.535C292.957 281.173 293.299 281.358 293.299 281.587C293.299 281.815 292.957 282 292.535 282Z" fill="#E6E6E6"/>
</g>
<defs>
<clipPath id="clip0_34_2967">
<rect width="293" height="282" fill="white" transform="translate(0.299805)"/>
</clipPath>
</defs>
</svg>
